<mxfile host="app.diagrams.net" modified="2024-06-22T21:12:07.233Z" agent="Mozilla/5.0 (Windows NT 10.0; Win64; x64) AppleWebKit/537.36 (KHTML, like Gecko) Chrome/125.0.0.0 Safari/537.36" etag="8D1Ga_Pe_GKnXkq6OVmv" version="24.6.1" type="device" pages="2">
  <diagram name="PÃ¡gina-1" id="kfymI93KXSqXt6rVxAI-">
    <mxGraphModel dx="2261" dy="746" grid="1" gridSize="10" guides="1" tooltips="1" connect="1" arrows="1" fold="1" page="1" pageScale="1" pageWidth="827" pageHeight="1169" math="0" shadow="0">
      <root>
        <mxCell id="0" />
        <mxCell id="1" parent="0" />
        <mxCell id="Yvlpg96nJwT9JrZSQYZ4-1" value="&lt;div style=&quot;box-sizing:border-box;width:100%;background:#e4e4e4;padding:2px;&quot;&gt;empresas&lt;/div&gt;&lt;table style=&quot;width:100%;font-size:1em;&quot; cellpadding=&quot;2&quot; cellspacing=&quot;0&quot;&gt;&lt;tbody&gt;&lt;tr&gt;&lt;td&gt;&lt;br&gt;&lt;/td&gt;&lt;td&gt;cnpj_basico&lt;br&gt;razao_social&lt;br&gt;porte&lt;/td&gt;&lt;/tr&gt;&lt;tr&gt;&lt;td&gt;&lt;br&gt;&lt;/td&gt;&lt;td&gt;&lt;/td&gt;&lt;/tr&gt;&lt;tr&gt;&lt;td&gt;&lt;/td&gt;&lt;td&gt;&lt;br&gt;&lt;/td&gt;&lt;/tr&gt;&lt;/tbody&gt;&lt;/table&gt;" style="verticalAlign=top;align=left;overflow=fill;html=1;whiteSpace=wrap;" vertex="1" parent="1">
          <mxGeometry x="120" y="150" width="186" height="90" as="geometry" />
        </mxCell>
        <mxCell id="Yvlpg96nJwT9JrZSQYZ4-10" value="&lt;div style=&quot;box-sizing:border-box;width:100%;background:#e4e4e4;padding:2px;&quot;&gt;estabelecimentos&lt;/div&gt;&lt;table style=&quot;width:100%;font-size:1em;&quot; cellpadding=&quot;2&quot; cellspacing=&quot;0&quot;&gt;&lt;tbody&gt;&lt;tr&gt;&lt;td&gt;&lt;br&gt;&lt;/td&gt;&lt;td&gt;cnpj_basico&lt;br&gt;cnpj&lt;br&gt;nome_fantazia&lt;br&gt;identificador_matriz_filial&lt;br&gt;situacao_cadastral&lt;/td&gt;&lt;/tr&gt;&lt;tr&gt;&lt;td&gt;&lt;br&gt;&lt;/td&gt;&lt;td&gt;&lt;/td&gt;&lt;/tr&gt;&lt;tr&gt;&lt;td&gt;&lt;/td&gt;&lt;td&gt;&lt;br&gt;&lt;/td&gt;&lt;/tr&gt;&lt;/tbody&gt;&lt;/table&gt;" style="verticalAlign=top;align=left;overflow=fill;html=1;whiteSpace=wrap;" vertex="1" parent="1">
          <mxGeometry x="440" y="170" width="206" height="130" as="geometry" />
        </mxCell>
        <mxCell id="Yvlpg96nJwT9JrZSQYZ4-16" value="" style="endArrow=none;html=1;edgeStyle=orthogonalEdgeStyle;rounded=0;entryX=0;entryY=0.5;entryDx=0;entryDy=0;" edge="1" parent="1" source="Yvlpg96nJwT9JrZSQYZ4-1" target="Yvlpg96nJwT9JrZSQYZ4-10">
          <mxGeometry relative="1" as="geometry">
            <mxPoint x="330" y="380" as="sourcePoint" />
            <mxPoint x="490" y="380" as="targetPoint" />
          </mxGeometry>
        </mxCell>
        <mxCell id="Yvlpg96nJwT9JrZSQYZ4-17" value="1,1" style="edgeLabel;resizable=0;html=1;align=left;verticalAlign=bottom;" connectable="0" vertex="1" parent="Yvlpg96nJwT9JrZSQYZ4-16">
          <mxGeometry x="-1" relative="1" as="geometry" />
        </mxCell>
        <mxCell id="Yvlpg96nJwT9JrZSQYZ4-18" value="1,1" style="edgeLabel;resizable=0;html=1;align=right;verticalAlign=bottom;" connectable="0" vertex="1" parent="Yvlpg96nJwT9JrZSQYZ4-16">
          <mxGeometry x="1" relative="1" as="geometry" />
        </mxCell>
        <mxCell id="Yvlpg96nJwT9JrZSQYZ4-19" value="&lt;div style=&quot;box-sizing:border-box;width:100%;background:#e4e4e4;padding:2px;&quot;&gt;socios&lt;/div&gt;&lt;table style=&quot;width:100%;font-size:1em;&quot; cellpadding=&quot;2&quot; cellspacing=&quot;0&quot;&gt;&lt;tbody&gt;&lt;tr&gt;&lt;td&gt;&lt;br&gt;&lt;/td&gt;&lt;td&gt;cnpj_basico&lt;br&gt;tipo&lt;br&gt;nome&lt;br&gt;documento&lt;br&gt;qualificacao&lt;/td&gt;&lt;/tr&gt;&lt;tr&gt;&lt;td&gt;&lt;br&gt;&lt;/td&gt;&lt;td&gt;faixa_etaria&lt;br&gt;&lt;/td&gt;&lt;/tr&gt;&lt;tr&gt;&lt;td&gt;&lt;/td&gt;&lt;td&gt;&lt;br&gt;&lt;/td&gt;&lt;/tr&gt;&lt;/tbody&gt;&lt;/table&gt;" style="verticalAlign=top;align=left;overflow=fill;html=1;whiteSpace=wrap;" vertex="1" parent="1">
          <mxGeometry x="118" y="367" width="206" height="130" as="geometry" />
        </mxCell>
        <mxCell id="Yvlpg96nJwT9JrZSQYZ4-20" value="" style="endArrow=none;html=1;edgeStyle=orthogonalEdgeStyle;rounded=0;entryX=0.461;entryY=0;entryDx=0;entryDy=0;entryPerimeter=0;exitX=0.5;exitY=1;exitDx=0;exitDy=0;" edge="1" parent="1" source="Yvlpg96nJwT9JrZSQYZ4-1" target="Yvlpg96nJwT9JrZSQYZ4-19">
          <mxGeometry relative="1" as="geometry">
            <mxPoint x="180" y="260" as="sourcePoint" />
            <mxPoint x="450" y="245" as="targetPoint" />
          </mxGeometry>
        </mxCell>
        <mxCell id="Yvlpg96nJwT9JrZSQYZ4-21" value="1,1" style="edgeLabel;resizable=0;html=1;align=left;verticalAlign=bottom;" connectable="0" vertex="1" parent="Yvlpg96nJwT9JrZSQYZ4-20">
          <mxGeometry x="-1" relative="1" as="geometry">
            <mxPoint y="20" as="offset" />
          </mxGeometry>
        </mxCell>
        <mxCell id="Yvlpg96nJwT9JrZSQYZ4-22" value="1,N" style="edgeLabel;resizable=0;html=1;align=right;verticalAlign=bottom;" connectable="0" vertex="1" parent="Yvlpg96nJwT9JrZSQYZ4-20">
          <mxGeometry x="1" relative="1" as="geometry" />
        </mxCell>
        <mxCell id="Yvlpg96nJwT9JrZSQYZ4-23" value="&lt;div style=&quot;box-sizing:border-box;width:100%;background:#e4e4e4;padding:2px;&quot;&gt;dicionario&lt;/div&gt;&lt;table style=&quot;width:100%;font-size:1em;&quot; cellpadding=&quot;2&quot; cellspacing=&quot;0&quot;&gt;&lt;tbody&gt;&lt;tr&gt;&lt;td&gt;&lt;br&gt;&lt;/td&gt;&lt;td&gt;id_tabela&lt;br&gt;nome_coluna&lt;br&gt;chave&lt;br&gt;valor&lt;/td&gt;&lt;/tr&gt;&lt;tr&gt;&lt;td&gt;&lt;/td&gt;&lt;td&gt;&lt;br&gt;&lt;/td&gt;&lt;/tr&gt;&lt;/tbody&gt;&lt;/table&gt;" style="verticalAlign=top;align=left;overflow=fill;html=1;whiteSpace=wrap;" vertex="1" parent="1">
          <mxGeometry x="440" y="390" width="206" height="110" as="geometry" />
        </mxCell>
        <mxCell id="Yvlpg96nJwT9JrZSQYZ4-24" value="" style="endArrow=none;html=1;edgeStyle=orthogonalEdgeStyle;rounded=0;exitX=0.5;exitY=1;exitDx=0;exitDy=0;" edge="1" parent="1" source="Yvlpg96nJwT9JrZSQYZ4-10" target="Yvlpg96nJwT9JrZSQYZ4-23">
          <mxGeometry relative="1" as="geometry">
            <mxPoint x="316" y="205" as="sourcePoint" />
            <mxPoint x="450" y="245" as="targetPoint" />
          </mxGeometry>
        </mxCell>
        <mxCell id="Yvlpg96nJwT9JrZSQYZ4-25" value="1,1" style="edgeLabel;resizable=0;html=1;align=left;verticalAlign=bottom;" connectable="0" vertex="1" parent="Yvlpg96nJwT9JrZSQYZ4-24">
          <mxGeometry x="-1" relative="1" as="geometry">
            <mxPoint y="20" as="offset" />
          </mxGeometry>
        </mxCell>
        <mxCell id="Yvlpg96nJwT9JrZSQYZ4-26" value="1,1" style="edgeLabel;resizable=0;html=1;align=right;verticalAlign=bottom;" connectable="0" vertex="1" parent="Yvlpg96nJwT9JrZSQYZ4-24">
          <mxGeometry x="1" relative="1" as="geometry" />
        </mxCell>
        <mxCell id="Yvlpg96nJwT9JrZSQYZ4-27" value="" style="endArrow=none;html=1;edgeStyle=orthogonalEdgeStyle;rounded=0;exitX=1;exitY=0.377;exitDx=0;exitDy=0;exitPerimeter=0;" edge="1" parent="1" source="Yvlpg96nJwT9JrZSQYZ4-19" target="Yvlpg96nJwT9JrZSQYZ4-23">
          <mxGeometry relative="1" as="geometry">
            <mxPoint x="553" y="310" as="sourcePoint" />
            <mxPoint x="603" y="400" as="targetPoint" />
          </mxGeometry>
        </mxCell>
        <mxCell id="Yvlpg96nJwT9JrZSQYZ4-28" value="1,1" style="edgeLabel;resizable=0;html=1;align=left;verticalAlign=bottom;" connectable="0" vertex="1" parent="Yvlpg96nJwT9JrZSQYZ4-27">
          <mxGeometry x="-1" relative="1" as="geometry">
            <mxPoint y="20" as="offset" />
          </mxGeometry>
        </mxCell>
        <mxCell id="Yvlpg96nJwT9JrZSQYZ4-29" value="1,1" style="edgeLabel;resizable=0;html=1;align=right;verticalAlign=bottom;" connectable="0" vertex="1" parent="Yvlpg96nJwT9JrZSQYZ4-27">
          <mxGeometry x="1" relative="1" as="geometry" />
        </mxCell>
        <mxCell id="Yvlpg96nJwT9JrZSQYZ4-30" value="" style="endArrow=none;html=1;edgeStyle=orthogonalEdgeStyle;rounded=0;exitX=0.75;exitY=1;exitDx=0;exitDy=0;entryX=0.25;entryY=0;entryDx=0;entryDy=0;" edge="1" parent="1" source="Yvlpg96nJwT9JrZSQYZ4-1" target="Yvlpg96nJwT9JrZSQYZ4-23">
          <mxGeometry relative="1" as="geometry">
            <mxPoint x="334" y="426" as="sourcePoint" />
            <mxPoint x="500" y="465" as="targetPoint" />
            <Array as="points">
              <mxPoint x="260" y="315" />
              <mxPoint x="430" y="315" />
              <mxPoint x="430" y="370" />
              <mxPoint x="492" y="370" />
            </Array>
          </mxGeometry>
        </mxCell>
        <mxCell id="Yvlpg96nJwT9JrZSQYZ4-31" value="1,1" style="edgeLabel;resizable=0;html=1;align=left;verticalAlign=bottom;" connectable="0" vertex="1" parent="Yvlpg96nJwT9JrZSQYZ4-30">
          <mxGeometry x="-1" relative="1" as="geometry">
            <mxPoint y="20" as="offset" />
          </mxGeometry>
        </mxCell>
        <mxCell id="Yvlpg96nJwT9JrZSQYZ4-32" value="1,1" style="edgeLabel;resizable=0;html=1;align=right;verticalAlign=bottom;" connectable="0" vertex="1" parent="Yvlpg96nJwT9JrZSQYZ4-30">
          <mxGeometry x="1" relative="1" as="geometry">
            <mxPoint x="-11" y="-20" as="offset" />
          </mxGeometry>
        </mxCell>
        <mxCell id="Yvlpg96nJwT9JrZSQYZ4-33" value="&lt;div style=&quot;box-sizing:border-box;width:100%;background:#e4e4e4;padding:2px;&quot;&gt;empresa_socio&lt;/div&gt;&lt;table style=&quot;width:100%;font-size:1em;&quot; cellpadding=&quot;2&quot; cellspacing=&quot;0&quot;&gt;&lt;tbody&gt;&lt;tr&gt;&lt;td&gt;&lt;br&gt;&lt;/td&gt;&lt;td&gt;cnpj_basico&lt;br&gt;razao_social&lt;br&gt;porte&lt;br&gt;tipo_socio&lt;br&gt;nome_socio&lt;br&gt;doc_socio&lt;br&gt;qualificacao_socio&lt;br&gt;faixa_etaria_socio&lt;/td&gt;&lt;/tr&gt;&lt;tr&gt;&lt;td&gt;&lt;br&gt;&lt;/td&gt;&lt;td&gt;&lt;/td&gt;&lt;/tr&gt;&lt;tr&gt;&lt;td&gt;&lt;/td&gt;&lt;td&gt;&lt;br&gt;&lt;/td&gt;&lt;/tr&gt;&lt;/tbody&gt;&lt;/table&gt;" style="verticalAlign=top;align=left;overflow=fill;html=1;whiteSpace=wrap;" vertex="1" parent="1">
          <mxGeometry x="-135" y="190" width="180" height="150" as="geometry" />
        </mxCell>
        <mxCell id="Yvlpg96nJwT9JrZSQYZ4-34" value="" style="endArrow=classic;html=1;rounded=0;exitX=0.011;exitY=0.6;exitDx=0;exitDy=0;exitPerimeter=0;" edge="1" parent="1" source="Yvlpg96nJwT9JrZSQYZ4-1" target="Yvlpg96nJwT9JrZSQYZ4-33">
          <mxGeometry width="50" height="50" relative="1" as="geometry">
            <mxPoint x="390" y="440" as="sourcePoint" />
            <mxPoint x="440" y="390" as="targetPoint" />
          </mxGeometry>
        </mxCell>
        <mxCell id="Yvlpg96nJwT9JrZSQYZ4-35" value="" style="endArrow=classic;html=1;rounded=0;exitX=0;exitY=0.5;exitDx=0;exitDy=0;entryX=1;entryY=0.633;entryDx=0;entryDy=0;entryPerimeter=0;" edge="1" parent="1" source="Yvlpg96nJwT9JrZSQYZ4-19" target="Yvlpg96nJwT9JrZSQYZ4-33">
          <mxGeometry width="50" height="50" relative="1" as="geometry">
            <mxPoint x="132" y="214" as="sourcePoint" />
            <mxPoint x="-40" y="272" as="targetPoint" />
          </mxGeometry>
        </mxCell>
        <mxCell id="Yvlpg96nJwT9JrZSQYZ4-36" value="base analÃ­tica&lt;div&gt;Join das bases Empresas / SÃ³cios&lt;/div&gt;" style="text;html=1;align=center;verticalAlign=middle;whiteSpace=wrap;rounded=0;" vertex="1" parent="1">
          <mxGeometry x="-140" y="150" width="190" height="30" as="geometry" />
        </mxCell>
        <mxCell id="Yvlpg96nJwT9JrZSQYZ4-37" value="&lt;div style=&quot;box-sizing:border-box;width:100%;background:#e4e4e4;padding:2px;&quot;&gt;empresa_socio_grafo&lt;/div&gt;&lt;table style=&quot;width:100%;font-size:1em;&quot; cellpadding=&quot;2&quot; cellspacing=&quot;0&quot;&gt;&lt;tbody&gt;&lt;tr&gt;&lt;td&gt;&lt;br&gt;&lt;/td&gt;&lt;td&gt;id_grupo&lt;br&gt;empresas&lt;br&gt;socios&lt;/td&gt;&lt;/tr&gt;&lt;tr&gt;&lt;td&gt;&lt;/td&gt;&lt;td&gt;&lt;br&gt;&lt;/td&gt;&lt;/tr&gt;&lt;/tbody&gt;&lt;/table&gt;" style="verticalAlign=top;align=left;overflow=fill;html=1;whiteSpace=wrap;" vertex="1" parent="1">
          <mxGeometry x="-135" y="417" width="180" height="80" as="geometry" />
        </mxCell>
        <mxCell id="Yvlpg96nJwT9JrZSQYZ4-38" value="Resultado do algoritmo" style="text;html=1;align=center;verticalAlign=middle;whiteSpace=wrap;rounded=0;" vertex="1" parent="1">
          <mxGeometry x="-140" y="387" width="190" height="30" as="geometry" />
        </mxCell>
      </root>
    </mxGraphModel>
  </diagram>
  <diagram id="fPS7z4mCp5LmPm61PvdV" name="grafos_exemplo">
    <mxGraphModel dx="1434" dy="746" grid="1" gridSize="10" guides="1" tooltips="1" connect="1" arrows="1" fold="1" page="1" pageScale="1" pageWidth="827" pageHeight="1169" math="0" shadow="0">
      <root>
        <mxCell id="0" />
        <mxCell id="1" parent="0" />
        <mxCell id="058cRxedPbUTStPQTcPn-13" value="" style="rounded=0;whiteSpace=wrap;html=1;" vertex="1" parent="1">
          <mxGeometry x="180" y="490" width="360" height="110" as="geometry" />
        </mxCell>
        <mxCell id="058cRxedPbUTStPQTcPn-1" value="" style="shape=image;verticalLabelPosition=bottom;labelBackgroundColor=default;verticalAlign=top;aspect=fixed;imageAspect=0;image=data:image/png,iVBORw0KGgoAAAANSUhEUgAAAgwAAAFjCAYAAABRzFMdAAAAAXNSR0IArs4c6QAAAARnQU1BAACxjwv8YQUAAAAJcEhZcwAAFxEAABcRAcom8z8AAEZTSURBVHhe7d0HfBTVFgbwBKSpKFiwIKI+Kz6Up4L0ItKU3pvSuxSlh5aEHhBCld4h9F4C0nuR3nsJvYYQQgnhe3NmbjBkJ9lNdjfZTb7/e+cXcnd2J0Tde/aWcz1AREREZAUTBiIiIrKKCQMRERFZxYSBiIiIrGLCQERERFYxYSAiIiKrmDAQERGRVUwYiIiIyComDERERGQVEwYiIiKyigkDERERWcWEgYiIiKxiwkBERERWMWEgIiIiq5gwEBERkVVMGIiIiMgqJgxERERkFRMGIiIisooJAxEREVnFhIGIiIisYsJAREREVjFhICIiIquYMBAREZFVTBjomTNngJUrgQkTgMGDgYEDja8TJwJ//w2cP68uJCKiZIcJQzIXGgps3gyMHAk0bgzkzAlkzKj9i6H9mxEZr78O5M4NNGsGjBsHbN0KPHigXoCIiJIFJgzJ2KlTwPDhQI4cgKfn80lCTCHXffcd8NdfwIUL6oWIiCjJ07oASm6ePAE2bgTKlgVee80yKbAl0qUDatYEdu4EwsPVCxMRUZKlvfVTcrN0qTGqkDq1ZSIQl5DnlywJLF+uXpiIiJIs7W2fkpNVq4wpBbMEID6RMiVQpgywbZu6ARERJUnaWz4lFydPAnXqWHb69saLLwJ16wLBwepGLiIsDDh6FNiyBVi/3liseeIEF2wSEcWH9nZPyYVsk3znHcsO3xHxxhvA6NGJ3xlfv25MkQwaBHToANSuDZQoARQpYkyfSMLUqZOxXTQw0PWSHCIiV6W91VNyIKML0mGadfZRI1MmYzFk+fLGVEPFisCXXwIpUphfHzVy5TJqOSSGu3eB1auBzp2B//7X/OeLHrKOo0cPY/RBRiOIiChm2tsmJXVPnwJ//glkzWrZaUYPSRLkU7cUapo3D1ixwphuSJXK/Pqo8dZbwOLFCb9r4upVY/Tks8+MNRVmP5tZRG4lzZbNKE517Zp6QSIisqC9XVJS9+iRkQjYUmuhWjXg8GHg88+BV18FMmQwtlDa8tyXXgJ++w24eFHdOAFILYhGjYx1FLbWkjCLd98F/vgDOHtWvTARET1He6ukpO7yZSBfPstO0iyqVAF27bKs9mhLSIctFSH371c3djL5e9WvbyQ0Zj9PXEPWYbRrB5w7p25ARETPaG+TlJRFRBiln6Xks1knGT1kJOLGDWDuXKMMtFSCtDXZkHjzTWDTJnVzJ5LFle3bGyMLZj9HfEPKYEsVSxmVISKif2lvkZSUyXoCWYvw1VeWnaNZyGJHGeb38QFatQKaNgW++ML8WrOQYk5r1qibO4kkC8uWAR99ZP4z2BvZsxvFrYiI6F/a2yMlZfJJOSDAWNhn1jlGj6pVjXLPsh7B7HFrIYsOZbeCM0lCIyMhjh5diBpNmnDLJRFRVNpbIyVlMsKwaBHw9deWnaJZyBqG3bvjX68hbVpg7Vp1cyeQczDkCG5b11jIFEmBAkYthh9/BAoWBLJkAV54wfz6yJBqmAsXqpsSEREThuRAEgCpkWDWMUaP6tWNXRKZM5s/bi3ee8+oqOgssvWxa1cgfXrz+0eNt98GWrYEliwxtonKlk9ZmyFTLdYSIqk70aKFuikRETFhSA5u3TI+ZZt1jNGjQgVjkWR8Rhikky1a1Eg4nGXvXuCHH6xvoZTHfX2B6dOBn34yEhlJgmTkoF49Y9uo2fOihkx7sIw0EZFBe1ukpE6mJWrUsOwQzUKOu5ZKifE5yVKe262bUZ7ZWeTwLGvJjCQLkhDMmWNUfow+/SA/py3rHyT5OXZM3ZiIKJnT3hYpOZg0ybZP1faETAGsW+fcSo+yrsBaNUdJEGS3x/jxxuiC2TW2hNSUkKkMqZRJRJTcaW+LlBzI3L/sgDDrGB0R8om9dGnnl1eWNQhm948aMjoih0wNGQIULmy0SX2FmjWNEQdZw2DLlsz//Q9YsMBYaElElNxpb4uUXEyYALz/vmXH6Ij49FNjcaGzCx5JTQmz+0eNyBEG+fv+/LPRFrkAUs6MkCOuZTdI9OdFD1nvIH8nKX5FRJTcaW+LlFyEhBgFmeJbYyGmkNLMbdsmTHVEKaj08svmP0dkRF3D4OX1/BoG2Y4p0yYNGz7/HLOQLZjbtnFKgohIaG+LlJwcPGgM1zsqaZDh/19/TbgDp2QHhyzKtGWXhCRHUrRKpkpkZEUOmJJ1CYGBxvZRs+dFjVKleIIlEVEk7W2RkhMZXt+3z0gabKllEFvINko5+vrUKfXiCeDkSSNBSZPG/GeKGnLctkxDSBlpKVct6xEkgejYEfjgA/PnRA05uZOjC0REBu1tkZIj6eT79TM+dZt1ltbiP/8BevcGzp9XL5hAHj4EJk+2PdmREyjl8Cyp8liokDHCIImEtREKGZEYNEjdlIiImDAkZ3fuGLsOfvsN+Phjy07TLP7zn0do3fqpXjUxsc5akOOznb1FtGxZYzSDiIgM2lsjJXdXrhgVETt1Aho0AMqVA/LnN8pJy9fKlWVL5l18//0qVKs2B6dPh6pnJg5JVHr2dN7hUzIC4e+vbkZERDrt7ZHoX9IZS/llqagoOxLk65EjwNmzN7ROtDfKly+Ga9eC1NWJJ0j7EWTLZKpUlh2+vVG/PnD8uLoRERHptLdHItssXrwQ33yTA9u2bUNEIhcnkNuvWGGckWFtPUJcIkcOo7ojERE9T3uLJLLNvn37UL16dQwfPhy3b99WrYlHkoZp04ypE9mxYZYA2BpSqyFbNuNES1Z2JCKypL1VEtnm+vXrGDhwIOrUqYMjMk/hAsLCjJGGYsWMjj8+ow1SCKpkSWD1auDxY/XCRET0HO3tksg2T7SP3mvWrME333yDlStXqtbEJyMCBw4A3bvLbo+npklBTCFFoPz8jIJWREQUM+0tk8h2p0+fRpEiRTBixAjcu3dPtbqGY8euoFatAOTJsxilSt3VD4+KvpNC6jd89RW064C+fY2qj1Iym4iIYseEgeLk1q1b2if57mjZsqX2qV77WO9CNm1ag3LlCmPSpHHYvj1EPwpbRg/khMoOHYAuXYA//wTmz+cuCCKiuGLCQHHy6NEjrFq1CsWLF8fs2bNVa+J78OABhg0bijx5cuP0aVZcIiJyNCYMFGfXrl1DgQIF0LdvX31dgyvYvXs3mjRpAi8vL5ebKiEiSgqYMFCcPXz4EK1atULr1q1x3EXG9keOHIlixYph69atqoWIiByJCQPFmRRtmjNnDmrVqoVZs2ap1sQj2z1lTUW1atX0qQkiInI8JgwULzItUbp0aXSUs6IT2fz581GjRg2MHTtWtRARkaMxYaB4a9SokV7ESZKHxNS8eXNUrVoVly9fVi1ERORoTBgo3iZOnKgnDAtl/2IiOXr0KCpUqKAvdiQiIudhwkDxduzYMdSvXx/t27dXLQmvV69eetKyefNm1UJERM7AhIHs0qZNG5QpUwahoaGqJeHcuXMHJUqU0NdRhIeHq1YiInIGJgxkl9GjR6NSpUpYv359gh55/fjxYyxatEhPVgICAlQrERE5CxMGssvOnTvRrFkz+Pj46FUgE4qMLjRo0ABt27bFmTNnVCsRETkLEwayi0xF+Pr66qWig4ODVavz7dmzB7ly5cKUKVNcptokEVFSxoSB7Caddr58+fTyzAkxLXH37l34+/ujYsWK+j2JiMj5mDCQ3bZt24a6deti6NChCEmAs6L379+PkiVL6uWgZWqCiIicjwkD2U0KN/n5+aFKlSo4f/68anUOWewoixy/++47ff0EERElDCYMZLenT59i8eLFyJEjB3bs2KFanUNqP8ihV7///juuXr2qWomIyNmYMJBD7Nu3Tz9bYty4cU6dlpg7d65+tPbff/+doNs4iYiSOyYM5BDyaV+2Vsq5DjIK4Ay3b9+Gt7c3fv75Z/2ESiIiSjhMGMghZG3BypUrkSdPHqxatUq1Otbq1av1I7VlhwS3UhIRJSwmDOQwZ8+e1ROGUaNG4eHDh6rVcWR0QXZHsFATEVHCY8JADiNbHOVsiXbt2uH48eOq1THOnTunb91s2rSpaiEiooTEhIEcRkpDL1iwQC+oJF8dacSIEahRowaWL1+uWoiIKCExYSCHunz5MgoWLIh+/frp2y0dQU6irF69OurVq4cHDx6oViIiSkhMGMihZDFi/fr19amJixcvqlb7yEmYMmohlSSJiChxMGEgh5swYYK+3mDJkiWqJf6k1kLLli3RqFEjHDlyRLUSEVFCY8JADie7JWREoEuXLqol/uS1ChUqpJee5lZKIqLEw4SBnELWG9SuXVs/WTK+ZL3C2LFj9eRDKjsSEVHiYcJATjF8+HD88ssvWLt2rWqJu6CgIJQvXx59+vThuRFERImMCQM5xT///KOvO5By0fEhaxdkVEFOpVy6dKlqJSKixMKEgZxCtkLKiZJlypTR6zPEleyw8PLyQpMmTXDixAnVSkREiYUJAznNsGHDUKpUKezevTvONRk2btyIvHnzYs6cOfFKOIiIyLGYMJDTbNiwAQ0aNNAPi4rL2RJyPLZUdixSpIjDS0wTEVH8MGEgp7l16xZ8fX1Rrlw5BAcHq1brdu3ahV9//RW9e/fWkwciIkp8TBjIqSZPnoycOXPi0KFDNk9LyGmXUl567969+uJHIiJKfEwYyKk2b96MypUrY+LEiQgNDVWtMbt06RJat26NmjVr8twIIiIXwoSBnEpqKfT07YlGDRrh0oVLqjVmM6bPQNWqVTFr1iyOLhARuRAmDORcT4HFCxfj22+/xY4dOxDxNAJ3H95FUHAQgu4G4db9WwiPCDemK7T/t/ytJSqUrxCnNQ9EROR8TBjI6fYf3Y/slbKj+MDiKD+zPH6c8iOKTCqixw+TfkCZgDJovqw5vOd7o3KdyhjQZ4B6JhERuQomDOQ0tx/cxoS9E1B9VnW86fUmPDp6wMNLi07qa2f1Z+3rC74v4DWv1/B+6/fRbEoznA8+r16FiIhcARMGcortF7fj98Df8aH/h0Zy4KOFtxY91NeoIW3dteiiRTcPZBqcCY0WN8KyE8v0KQwiIkp8TBjI4Tac24Bik4sZSYBZghBbSGKhnvflyC8xdf9U3H98X70yERElFiYM5FBbLmxBnnF5jNGCuCYLUUOeq8V7g97DtAPT8CCcWyyJiBITEwZymHN3zukLGj27e+pTC6aJQFxCRhq0r9lHZsfKUyvVXYiIKDEwYSCHuBl2Ez7rfZCxX0Z4dI3W8ccWaiTB9DEJ7TFPH099F8WZO2fU3YiIKKExYSCHkEWOHw/9GCm6p4g9AYgaMoIgCyIlYnqOtGvXZeqbCaN2jVJ3IyKihMaEgex2O+w2+m3qh1Q9U9k+utDZA5n/zIz2q9qj4eKGeMPvjZifK0lDJw/UW1gP10Ovq7sSEVFCYsJAdttxcYe+0PEFnxeerTuINbRrXvZ5GbXm1cKJmyf0XRWfDf/MqMlgdr0aZfhm9DeYf2S+uisRESUkJgxkN+nE0/imMZIFW6YjOnsg7/i8GLFjBMb8MwYzD840EgYp5GR2vYT22nKPjn93VHclIqKExISB7CJnQIzfPd5IFiTMOvuo0c0Dr/Z9Fa1XtMbgrYNRe15tTNgzQa+5EGvCIImI9njtBbXxVA6dICKiBMWEgewiRZX6b+6PVL6prCcMWqfv2dUTdRbU0XdUfP3X16gQUAET907EFyO+iHlKIjI6eqDCzAqsyUBElAiYMJBd7jy4A+913kjdM3XsCYOMEGjx6ZBP0WdjH30Bo3wvCcCkfZPwxXAbEgbt8XIB5RD8kCdZEhElNCYMZBc5qtp3va/1hEEe0xKEyrMrY93Zddh0fpM+srDx/Eacvn0aQ7cPxcf+HxsVIs2eL6ElDOUDyiPkYYi6OxERJRQmDGSXx08ew3+bP1J4p7A+wqB9lWmIJkuaoMe6Hui7qS/mH52PA1cPoPu67sgyMEvs2zI7GglHeES4ujsRESUUJgxkNzkgSi8FbW0Ng4RcJ4sb22uhXV9pViXMPDQTnwz7BB4d1DVmIQmHlkxIzQYiIkp4TBjIbitOrsBbA96CZw9P884+ekjnryULMo1RdHJRfXThwyHqGGyz6yW06zMNzISBWwequxIRUUJiwkB2O37zOGrOrWl74aYokdInpV4hUs6LMHtcDzW6UGpaKewI2qHuSkRECYkJA9lN1hTMODAD6fumt700dGRIgiHTFGqNg2nIY14eehlpWTNBREQJjwkDOYSMMsj0wrOKj2Ydf3xCJRK5RufCspPL1N2IiCihMWEgh3gY/hDzjszD2wPfjn0tQlxDSxhkrYPfZj/WXyAiSkRMGMhhpAJj17Vd8WqvV2Mv82xrqJ0XUj761K1T6i5ERJQYmDCQQ90Mu4l2q9rhtd6vGSMNsa1NiCnkOV09kMonlV7Z8dC1Q+rViYgosTBhIIe7FXZLH2nIOjirccaEVG+UdQ2xJQ/ymFwj12p/zjIoC36Z/4u+NoKIiBIfEwZyCpmeWHR0EUpMLYHX+7+ONL3SPJ8wSHIQGWrqIW2vtEjfJz1yjs2Jsf+M1c+pICIi18CEgZxGtlueu3MO84/MR92FdfH+4Pfh6e0Jz+6eSOubFi/1fglpe6ZFCp8UelIh0w9yvsSxm8f0UzCJiMh1MGEgp3uq/e/M7TPYeG4jyncsj8K/F4b3Cm8M2TEEY/4Zo58nsebMGhy5cQSPnjxSzyIiIlfChIESVJNfm6BN6za4GXwTYeFhejJBRESujwkDJZiIiAgUL14cnTt1Vi1EROQumDBQgrl16xZ++OEH9OrVS7UQEZG7YMJACebgwYMoW7Ys/vrrL9VCRETuggkDJYjw8HAEBgaiVq1amD17tmolIiJ3wYSBEsTDhw8xYcIENGnSBGvWrFGtRETkLpgwUIIIDQ1F79690a5dO+zbt0+1EhGRu2DCQAkiODgYLVq0gLe3N4KCglQrERG5CyYMlCBkh0SFChUwcOBA3L/PKo5ERO6GCQMliGvXriF37twYNWqUaiEiInfChIESxKlTp/D1119j+vTpqoWIiNwJEwZKEFu3bkWhQoWwZMkS1UJERO6ECQM5nWypnD9/PipXroz169erViIicidMGMjp7ty5g5EjR+o1GHbv3q1aiYjInTBhIKe7fPkyunfvDi8vL5w4cUK1EhGRO2HCQE535swZfXRh0KBBuHr1qmolIiJ3woSBnO7IkSMoV64cJk+ejLCwMNVKRETuhAkDOd2ePXvw/fffY+nSpaqFiIjcDRMGcrqNGzfi888/x5YtW1QLERG5GyYM5HSLFi1Crly5eOgUEZEbY8JATiVrFuRY6/Lly+PYsWOqlYiI3A0TBnKqK1eu6AdONW3aFOfOnVOtRETkbpgwkFNJ3YXOnTvrx1pzSyURkftiwkBO9c8//6Bx48YYPXo0goODVSsREbkbJgzkVGvXrkWlSpWwcOFC/UwJIiJyT0wYyKlkh0ThwoWxfft2PH36VLUSESVd8lb34IERSQkTBnKqKVOmIEeOHHp5aCKipOjRIxlNBXr1Aho0ACpWBMqVM6JSJaB+faBfP6lJA0REqCe5ISYM5FQjRoxAnjx5cP36ddVCRBR3j8If4f6j+wiPCFctie/uXWDaNOC334BChYAMGbROVetVzeKNN4AffgBatwZmzwZCQ9WLuBHtr0HkHPfv34efn5++huH27duqlYjIuoshF7H69GpM2z8Nw3YMQ5+NfeC7wRf9NvXDyF0jEXAwABvObcDNsJvqGQlr1y7Axwf44APL5MBaZMsG9OgBHDigXsxNaD86kXOcP39eP9a6ZcuWWiaupeJERFacDz6PJceXoO3Ktsg2Ihs8enjAo5sHPL09kcInxbPvU/VMhe/GfIfu67pjzZk1uBRySb2Cc8n0w+rVwE8/AalTWyYDcYny5Y3Ew11oPzKRc8ihU3/88Qf69u2rjzYQUcIICZGiaYDUSpNPsTt3Art3A8ePA0FBwE3tQ7l0fK4k7HEYtgZtRd0FdZG+b3qk6ZkGHt5actA9SkiyEOV7SSBS+qTEO3++g9+W/4ZD1w45dcoiXHvpv/8Gvv8eSJPGMgGITxQvbvyzcQfaj0vkHH9r/2U1adJEP9b6kau9OxElQfKfmZan60PlP/4IfPop8P77xrB51qzG1//9D/jlFyAgAJBaak+eqCcnIunkh+8cjuwjs+Ol3i/pIwjPEgRJGmIKNdog16brlQ45x+TE4mOL8STCOX8pSbxkVCBVKsuOP76RMiVQtixwKWEGSOyi/bhEzjFz5kzUqlVLTxyeuMK7ElEStm4dULcukD078M47lh1T1EibFvjsM6BAAeDPP4HEXJMsnbvfZj+8N+i9fxMFs+TAWshzu3ro0xgLji5AxFPHbke4dw/w9jZ+d2a/U3tCFkvKmgZXr22n/ahEziE7JMqVK4fDhw+rFiJyNFlP7OcH5MkDvPCCZWdkLTJnNhKNlSvVCyYgqc0yfs94fDTkI3h00Tp8ayMK1kKSDe11ZKRCFkw6kuxs+OQT89+hveHpaSyE3LFD3cxFaT8qkXP4+PigaNGiuHPnjmohIkeSKYWOHYHXXrPshOIaMtqwcKF64QQgIwAHrx1EvvH5jNEBe5OFyJDX6eyBSrMq4cj1I+pu9pECTI0bm//eYgqZEpJ/NjJy0KmTMZUR27bLF180rr11S93UBWk/JpHjySeH9u3bo3jx4qzwSOQE0rF07mz/Sv2o8c03xqK+hCgudDvsNlqvaI2MfTPqUwmmnX9kyOOdVGjJgP69lQTjld6v6FsxHTE1ITsZihQx/51FD1kMKcnB6NHAjBlSvA6YPBnw9QVy5DDWLJg9L0UKYzrpn3/UTV2Q9mMSOd69e/fw+++/49dff1UtROQoYWHA2LHGp1Kzzie+IcmHrNo/eVLdyEmeav/beXGnsW7BylSEp48nMg/KjFxjciHv+Lz6Vso3B7xpPB7T86TdywNlZpTB0RtH1V3jb/Bg4N13zX9nUUOmFqTTDwwEOnQAXn/daE+Xzphy+PLL2HdXyJTSkiXqpi5I+xGJHO+k9o7TqlUrdJKxOCJyqPXrgYIFjQ7KrOOxJ2R6Q9ZEOHMB3t2Hd+G/zR8Z+2U0piPMOn0JreOX3Q+NlzTGqlOrsO7MOiw7sQxea7yQ+c/MsY9MaK+beWBmDNo6SN01/po0iXlkIGpIAle7NjB/vrEbJepj8s9KXiO2f2ayoFJGJmT7pivSfkQix9u8eTOaN2+OIUOGqBYicgTZcNSzp21b+yI7KfnkKiHD3mbXRQ/Zfqn9J+w0h68fRukZpZHSN6XVXRFSkyHvuLwoOrkovvD/AiWnlcSKkytQbU41pPBOEevzPb08UX1OdXXX+JHpmTJlzH9P0UN2p8jIguw8ee8982tiC0k4unVL3F0rsdF+RCLHmzdvHpo2bYrZsrSYiBxm+3agWDHLziZ6yO4HmUOXhYwyjy7/KcrIQe7c5tdHDUkyJNd31nkH68+uR5bBWYzO3spahBd8XzCKOMl1bT3war9XMf3AdH39g/w51hGKTh56gnHvyT11Z+vCwsJw69YtBAUF4cyZY9izZz++//6u6e8pemTJAnh5GYdQxSdhkBEGOWvi/Hn1w7gY7UckcryRI0eiUaNG+kgDETmOnHr46quWnU30+O9/gRs35L9FY4V/ixbA8OHAxIlA4cKxL5aUhEFOWty3T93UwVadXYVUvqli7+wjQxIFSSwkvDzwof+HCDwViDoL6iCdT7rYEw7tsS/8voDvWF/t7z4cAwcMRM+ePdGlSxe0bdtWHwWtV68eatasiSpVqqBq1aqoXr26Xj+mdu3aqF+/BurUqY+33jpg+nuKHjKdIwdRye/4ww/Nr4ktmDBQstSjRw/tP7b6PNaayMFkPt2ss4kesvhu/35j50Nk2xdfAOPHA9OnA2+//fz10UMet2cBnuyOevjwoX6OzA0tc7l48aL+fnDy2En4B/r/mwiYdfRmoSULr/V7Dd3XdtcPnvrqr6/0NtNro8Sbnd9EyeYl0bBRQzRq2AgNGjTQk4S6detqyUAd/PLLL3pyIAu05UOOnH3ToUMH/Rycvn19MXDgYOTIcdb0dxQ9ZNpHTqSUNSZa/vHcY7IAUhZOxlYr46WXjOJQrrq1UvsRiRxPSkLLf4Ch7niGK5GLkoWIsqjOrLOJHjLCIOdIyGhC1PYKFYCDB43Ho7ZHD1nv4Ot7BYcP79PPhdm5cwe2bNmidYbr9eqtK1aswOLFizF//nzMmjUL06ZNw6RJkzB27Fh9hHHYsGEYNGgQBgwYgD59+miv5Ytu3bqhV+deKN+pfOwjA9Gjiwcy9MqA5sua66Wfi08tjlQ+qawnHN088PnAzzFg3gBs3bYVB/cfxIkTJ/Tphps3b+pn3Niy7btVq9g7+qghx1jLKJCM7GifmVCxovHPTMtT9DMoYhvZkcckoXv8WN3YxWg/IpFjRURE6MN7ksETkeMcOWLs8TfrbKJHTAmDfC8jD3nzPt9uFoULL0THjo3RrFlTrfOrpw/VV65cGWXKlEGJEiW0xwsjT548+Pbbb7X7/RdffvklvvnmG+TPn1+vwSKVXmWIXz7Ry/C/TAP06tILtX1rGydPmnXy0UNLCl7yfgk159bEjAMzUD5AJRuyHdPs+siQa7p6oMCEAtgWtE39BuNHdi7EZYohUyagfXtg6VKjrsWiRUCXLsYaB7PrI0OmJLQ8zGVpPyKRY92+fRvVqlXT3xyIyHHkYKnSpS07GrOIKWGQIXMZYZBS0lHbzeKnn9Zi2LB+2qflEZg4cSICAgKwYMECfXRh3bp12LZtG/bt24djx47h3LlzuHz5Mq5evYpr167p0xDyKV4WEEq11+DgYH164l7IPSw7sgyZBmQyRghiG2nQHkvRLQVqzKmh74zouaGnXrshY5+MeLHXi9aTjs4eKDa1GC7fu6x+g/EjCVbJkua/o5hCdjzIaIMkD/I1ffrYd6nIjhYZgdi7V93UBWk/JpFjydkRMi/Yv39/1UJEjiAdvSxGNOtwokdkwiD1GqK216hhdEqyniFqu1n4+oZqHf4NvcMPCQnRh/BlXUJ4eLg+khhfB24cQP4J+Y1OPaZpBUkktMcy+WXC5H2T8TD8IdaeXYu5R+ZizqE5qDWvFl7p94rVXRLlAsrZfXqlTBG0bGn+O3JUyILJAQOg/a7VTV2Q9mMSOdbq1av1hUXyiYSIHEf250uHb9bhRI/IRY85c/7bJn+WBY+jRgFvvvn89WYxbpy6sYNdD72Obmu74ZW+Vjp8LWl4sfeL+nkTlWdX1rdIlp9ZHmUDyuqnUqbumTrmEQot2ZCRCK/VXuqu9lm+HMiVy/z35IiQBM9Zu1IcRfsxiRxHFhBNnToVzZo1w7Jly1QrETmCfKhv2NCyszELKUMsq+3nzZOD4IyFeJMmAUOHGmcaWCv8lDGjHFGvbuxgcr6DnCb5ht8btq1FkPMjOmjRUYWcKRHbeRLS7uWBAhMLYMuFLequ9pHjrfv2Nco8m/2+7Ak5lErKT0vJb1em/ahEjiPDlDIV0bp1a+ySE1uIyKFk250tZ0jI3LkUapLRBKk8OGKEUYVQPsmaXR81pA6DFIeSIlHOcjnkMirMrIC0vmltq8cQl9AShtTeqdHh7w54+OShuqP95KT+6tXNf2fxDflnqX2+cmopbkfRflwix3ny5AnatGmjn1R54cIF1UpEjiKr7m1ZsGhPSMLQp48sYFY3dYLwiHD9bIjsf2WP/UyIuIaMLmivJ2skZM2Do+3YYSRTtm6zjC2k7kK9esbuF3eg/chEjiOLoWRLpZeXl15ilYgcS0qbyJluzjh4SkJeV0YnVq9WN3SisPAwdF3bFW/6vWmMMsQ0xWBryPO118nQLwMm7J2g7uJ4smhUtrdaK34VW8giRxlZOH5cvagb0H5sIsd58OABChYsCB+ZNCUip5AKjHJcsllHZG9I2el27YDL9u1EtNmN0BtotLiRfiql3uHHN2lQyYIspPTb7IeQRyHqDs4hvx9ZdyD/HKTgki0jDpKMyfZKWV8iU0TOHMFxBu2vQOQ4ly5dQqFCheDv769aiMjRQrS+cOBA20+fjEt8953xCdqOXZNxFnQ3CG0C2xjHXUcmDbYmDpHXqS2YA7cMxJ0HCbM38e5dQJZqSeKgve09q+IoyUOaNMb3Mr0jbbJYsmhR4zyP3budd7CXM2l/DSLHkB0Su7X/EkqXLo3JkyerViJyBvmEK+dKOHJqQqoZzpolU4vqJglIkoZxe8ahyKQixpoGmaKIXtgp+p/lcS8P/Zjsn2f8jNmHZyP4QcKvHpTOX9Y2zJ0LjBkD9O4NdO5shOysGDsWWLAA+Ocf4P599SQ3pP0rQuQYjx8/xpIlS/TysVJjnoic6/RpY5tlbOcT2BqffQZMmCALl9WLJ5IN5zboB0yVm1kObw14y9h2KVsp5aAp+bN8le+1pCLr4Kx6fQa/LX7YeWmneoXEJwmE1MyQSEpLubR/TYgcQ6rAjdHS66ZNm2LTpk2qlYic6exZY83BJ59YJgG2hKxZKFECmDpVvaCL2HtlLwZtHYRGSxqh2pxqqDizor4Ns9KsSqgxtwZaLGuBkbtG4sStE+oZ5Gzavy5EjiG14r29vdGxY0ccOnRItRKRs8kUwpQpcvYD8NFHthUXkhX+X38N/PGH62/rky2YUh3yYshF3Lrvomc/JwPavzZEjiGHzTRu3Fg/ylYOoSGihCOLFG/eNObK5ThlOSvivfeA9983ImtW43uJfPmAXr2Msylc9Shlcj1MGMhhJEmQBY/Dhw/Xt1cSUcKT0QaZO5epClmNLxXaZSGjLMhbvx44dgwICjJ2WhDFBRMGcpjz58/rZ+FPkbFRInIJT58Cjx4lzs4HSlqYMJDDHDx4EF999RUWLlyoWoiIKKlgwkAOIYdOrV27Vi/atGbNGtVKRERJBRMGcgg5NyIgIEA/R2K7M4+4IyKiRMGEgRxCdkgMGTIEzZs355ZKIqIkiAkDOYQcZS0nVHbv3h1nZXk2ERElKUwYyCGOHz+Ohg0bYtiwYbgpm8GJiChJYcJADrF37169BsPMmTPxSPZwERFRksKEgRxiy5Yteg0G7pAgIkqamDCQQwQGBiJbtmzYs2ePaiEioqSECQPZTWowyFRE3rx59bUMRESU9DBhILuFhITgr7/+QqVKlbhDgogoiWLCQHa7ePGifkLlb7/9xlMqiYiSKCYMZDcp1NS+fXv07t0bt27xrHoioqSICQPZTXZISA2G8ePH4969e6qViIiSEiYMZLfly5ejYsWK+tdwnqFLRJQkMWEgu82YMQMFCxbEvn37VAsRESU1TBjIbqNGjcJ3333HBY9EREkYEwayy9OnTzFw4EAUKlQId+/eVa1ERJTUMGEgu0iS4Ovri+rVqyM0NFS1EhFRUsOEgexy5vQZdO7UGe3atsODBw9UKxERJTVMGMgu+3fuR4eWHTDKf5RqISKipIgJA9kk4mkEdl/ejZmHZmLojqHos6kP+m7qi7oT6iLPH3nQeERjrDm1BrfDbqtnEBFRUsKEgWJ158EdrD+7Hn9u/RMVZ1ZE5kGZ4dHDAx6dVHTVQvv+1b6vIt/4fOi6pivmHZmHc3fOqVcgIqKkgAkDxejM7TPw2+KHT4d9Co/uHkjpm9JIFqKHtwrtmhTeKfBKv1fQdElT7Li0A6GPuBCSiCgpYMJAFmSr5Lagbfhp6k9I3ye9kQx0U8lB1AQheshjWtIg8YL3C/hm1DcY888YhD0OU69MRETuigkDWdhwbgNyj82NlN1T/psomCUIMYVcL8/TEofPhn2mr3Vg0kBE5N6YMNBz9lzZo69F0Dt8WZ9glhDYGjLaoL3O58M/x6S9kxAWzqSBiMhdMWGgZ87eOYtmS5s96+hNk4C4hvZaKXukxPdjv8feK3vVnYiIyN0wYaBnJu+bjEx+meDp7Wne+UvIdIOXFh216KCFjEL4aGF2bWRo17zg8wJarWiFq/euqrsREZE7YcJAOtkGWWdBnWfbJE07/u4eSNUzFb7+62uUnlEapaaXQpbBWYwRCbPrI0Mthsw0IBMCTwWqOxIRkTthwkC6iXsn4sNBHxqdf0wJQxcPZOiXAT039MSOiztwKeQSWi5vCY/O2mMxPScyZGrCNyX8Nvvh/uP76q5EROQumDCQ7o/AP+DZ2TP2jl/r9NP1Sof84/Oj+JTiWHJ8Cbqs6WJbwqAeLz29tF4xkoiI3AsTBsLdh3dRd0Fdmzp+Wd+QyjeVPtIwad+kuCUMWmQdnBULji5QdyYiInfBhIFw6PohlA8ob1vNBXlcuy5jv4yYun+q7QmDhHZNKu9UGLN7jLozERG5CyYMpBdqKjq5qG1bKSUx0OL1/q/HK2GQHRZDtg9RdyYiInfBhIGw7sw6FJ5UOGESBu1a/+3+6s5EROQumDAQdl7ciVLTStk2JSG7KLp4IE3PNJiwZwLarmwLj7Zam43Jhmc3T4zYOULdmYiI3AUTBsLFkIuoMbdG7DUYJLTHUvqkxNsD3kbOMTmx4uQKDN85HO/3fx8v937Z/DmRIa+rxWv9XsP0A9PVnYmIyF0wYSBEPI0wSkJL9Uazzj4ytIRCdkf4rPPBpnObcDX0ql6LYcq+KfqUhqePpzECYfZclTDIoVbrzq5TdyYiInfBhIF0/Tb1w4s9X4y5w5fQOnyp9PjliC9RaGIhFJxYEEUmFUGusbnw5oA3n11j8TwJ7XVlO2abFW0QdDdI3ZWIiNwFEwbSbTm/BUWnFDUShpg6fQl5TM6S6KSFjEhIyKJHa2sYtMcl2ZDpiPCIcHVXIiJyF0wYSCflmntt6GU9YYhPaMmCHD4loxGHrx9WdyQiInfChIGe2R60HfnG5TMWP8Y2NRHX0BKGzIMyY9ahWQgLD1N3IyIid8KEgZ4z/+h8fDjsQ6TwTWHe+cc1enjglX6voOnSprgeel3dhYiI3A0TBnpOyKMQ9F3fFy92edFYnxDf6Qm11sGzq6d+4NTZO2fVHYiIyB0xYaDnhN4NxdCxQ/FOhXeQom0KePZWJ1jamjioa+Uoa1kY+VHHjzBm3hggQt2AiIjcEhMGeiY8PBwTJ0xE0cJFMXT0UMzYMwPFphczEoGoaxoiE4ioEdku13XxQPZR2dF7bW/87vM7KpapiEMHD6m7EBGRO2LCQM/MmDEDhQoVQrdu3XDvzj29bcfFHfhz658oPa20Uc1Rtk9qCYH+VZIDlSBETl/kHpcbHf/uiMBTgQh5GIL9O/ejWtVqqF27Ns6cOaO/JhERuR8mDKRbsmQJihUrhpYtW+LmzZuq9V9ztsxB4U6FUah3Ifw651fUmFdDPxK74syK+GX+L/ht2W/w3eCrl4sOfRyqnmXYsGEDihYtirZt2+LSpUuqlYiI3AkTBsKWLVtQsmRJNGjQABcuXFCtzwtcGogalWpg0dxFuB58HaeDT2PflX04ePUgrty7oq4y9/jxY8yfPx/58+dHnz59cOvWLfUIERG5CyYMydzhw4dRvnx5fcpg//79qtXS0KFDUbBAQZw7e061xM2DBw8wZMgQFC5cGKNGjdK/JyIi98GEIRmTNQWSKFSuXBmbNm1SrZZCQkLQuXNnVKpUCY8ePlKtcXf//n20b98eJUqUwIIFC/D06VP1CBERuTomDMmUTD00b95cn4pYuXKlvkMiJjt37tSv7dWrFyIi7NsfefnyZdSrVw9lypTBrl27VCsREbk6JgzJkHTaXl5e+o4IWVvw6FHsowbjxo1DrVq18PfffztkVECmPqpWrYpq1arFuGaCiIhcCxOGZEZ2QPTu3VtfgDh58mR9QaI1f/zxh77OwZGLFVevXo1SpUqhRYsWuHHjhmolIiJXxYQhGZE1BP7+/ihYsKD+9cmTJ+qRmAUHB+OXX35Bw4YNVYvjzJ07F/ny5dOnOuQ+RETkupgwJBMykjBp0iQUKVIE3t7eNo0siHXr1ulrDoYPH65aHCc0NBRjx45Fnjx5MGbMGP17IiJyTUwYkgFZqLh48WI9WWjXrl2cOuYBAwagUaNGeq0GZ5BpDl9fX/zwww+YM2dOrIsviYgo8TBhSOJkkaJsmZQOuVWrVnGutFizZk19nYFsrXSWa9euoXHjxvo6ibVr16pWIiJyJUwYkri9e/fqWydllODo0aOq1TaSXMhzfXx8VIvzHD9+HBUqVNB3Yxw5ckS1EhGRq2DCkIQdOnRI375YvXp17NmzR7XaRhZELl++XH++HEqVEDZu3KgnKE2aNDE9z4KIiBIPE4YkSj6xy86Gn376Cdu2bVOttpPSzd27d9enMWIrGe1os2bN0tdayL3DwsJUKxERJTYmDEnQuXPn9I5eToiUYkvxcefOHb1OghwW5cz1C9HJyIacNZE3b179q7WiUkRElDCYMCQxUgSpU6dO+iJH+bQeH7JQUtY75MyZUy/ulNBk50S/fv30pGHRokU2bwElIiLnYcKQhMgQvlRxlCF9+XQe33Mf5HUCAgL0w6akDkNiOH/+PH7//Xd9lGP9+vV2n2FBRET2YcKQRMincEkSpIqjn5+fXUWQrly5op8qKSMVJ0+eVK0J79ixY/p5E3Ki5u7du1UrERElBiYMSYAUO5KiRwUKFECPHj3sPptBOmqZ0pgwYUKiryHYsWMHihUrhpYtW+LcufOq9XlS4frUKSAwEJg0CVriBEycCKxYIYs/5fejLiQionhjwuDmZKg+UOspI6s4Xrx4UT0Sf1I8KUeOHIk2HRHdwoULUbhwYXTp0gWhofdUK3D4MDB4MNCgAVC+PJA3L/DJJ8AHHwAffwzkyQOUKwfUqycVK+WUTPVEIiKKMyYMbk7m90uXLq1voZTdEfa6d+8eRo8erXW05VyqgNKIESNQtGhBDBvmh2PH7mHsWKB6deD117V/ibV/i63Fq68ClSvL68j6CPWiRERkM+2tlNzVzp079Tl+Ka50SsbkHUB2R7Ru3Vo/3+Hq1auqNfE9fvwAvXr5IF++Rqhd+7qeAJglBtYiXTqgeXNg3z4ZnVEvTkREVmlvoeSOZJ3Br7/+qo8uSEVHR1mzZg2KFy+ub2d8+PChanUNCxdeRvbsx7SO/5FFIhDXKFMG2LTJWP9ARETWaW+d5G7kk7+cDSFllOVgKUeR+gtSd+Hbb7/FiRMnVKtrkPUHNWoAKVNadv7xiRQpgAoVZJRG3YCIiGKlvXWSO7l7964+ZRA5CuDI+gSyu0LqOFSpUsWlznK4fx9o1Qp48UXLjt+eSJMGWuIFBAerGxERUYy0t01yF1JQSbZNypZHGQlw9JZH2cLYvHlzvY7DfemlXcRffwHvvmvZ4TsiMmUCBg2S0RV1MyIiMqW9ZZI7kA7c398f+fPn13cMyG4GR5MkRNZEbNiwQT/TwRXcugWULGnZ0TsyChUCLl9WNyQiIlPa2yW5OkkWpIhSvnz50L9/f9y+fVs94lje3t766IWc5eAK5AiJefOM2gpmHX3UyJ4daNkSaNLEiPr1gc8+M782emTNCkydCrjYGk8iIpeivV2Ss4U8DMGRG0ew6fwmrDy5EguOLsC8I/Ow9PhSrDu7Dv9c/geXQi6pq58nOxVmz56td+RSuMhZawuuXbumV1OsJ1WOXITkRXXq2LZ2wcvL6PCnTTNi8WKgZ0/g00/Nr48aspZBajRovwIiIoqB9nZJznIr7Bb2XtkL/23+KDm9JN758x2k7pn6Wbzg+wIy9MuAHKNyoPWK1gg8GYig4CA8iTCmA55GPMXSZUvx888/o0WLFrh+/bre7gwrV67Ud17IeRSu4pKWQ33zjWUHbxY9egByknfk97lyAXPnGosao14XU2TLBpw9q25MREQWtLdKcrSIpxE4dvMYfg/8HZ8M/QQZ+mbQEwSP7h7w6KpFNxWRf+7hgZd6v4R3/3wXxaYUw/KTy/Ew/CG2b92OypUqo1atWrhw4YJ6decYMGCAfsjTrl27VEviO3YM+Ogjy87dLLp1A1avNkYLJEqVAqZMAapVM78+erz3nlHMiYiIzGlvleRI4RHhmHt4LvKOz6snCnpSICHJgpYYeHibhLRL4tDF+P6LEV+g2ZxmKFalGGpXq43DcmiCk8lURI0aNVyqWNO2bbYnDG3bypZTY1RhyRLg4EGga1fgzTfNr48e778vRavUjYmIyIL2VkmO8vjJY0zdPxXZhmczOn81emCRIMQWklhoz03bJS3eafQORs8frV7deWT0QkpMd+jQQbW4Bjn7Sg6RMuvgo0enToAcfSEjCrVqGVMUct7Ejz+aXx895MCq5cvVjYmIyIL2VkmOMufwHHw59Et4dNY6/bgmClFDnqslDRn6Z0CHtR1w4a5zpyMWLFigjzBMnz5dtbiGuIwwdO8OLF367/dSEVJGGvr2ff66mEJGGNauVTcmIiIL2lslOcL2oO36NIRHJ9XhmyUCcY3uHsgyIAv6b+6vr4twlk7ax/NmzZrpB0+5kuPH45YwLFv2fJuMGAwZ8nxbTME1DEREsdPeKsle9x/fR4NFDZDSO6UxpWDW+UeGJBNeUUKmLmJ7jpaAfDvmW2y9sFU/68HRZM2CFGuS6YjHUvjAhVy5Anz7rWXnbhY+PsYiyQIFgPz5jW2SkjA0bWp+ffSQXRIOOB2ciCjJ0t4qyR7yyX/FiRX436j/GYsbzTr9yNCShbS90iLLoCz4wP8DPd7wewMpfbVEI6ZRiW4eSNcrHeovqo/QR6Hqro7yFEePHsaPPxbF0KFDVZvruHMHaNDAOJLarJOPGrJ9UrZFyrSExIoVQOvWwFtvmV8fNWRXRc2agBN3rRIRuT3t7ZLsce/RPX10QRIBq6MLXTzw1civMPvQbKw8tRKBpwIxbMcw5BqTC57dPM2fI+GlPe+vr3D8xnF11/iTQYrIgQoZXZg6dRLq1KmFVau0HtbFhIcb6xDk079ZRx810qc3pi8kPvzQiJdfNr82ekhxp9mzAQcfzUFElKRob5dkjwvBF/TCS/r0gllnHzW0hOL1/q+j6OSiKDyxMApNKISxu8ei14ZeeKP/G8Yog9lIg5ZoZP4zMybumahPf8SVVHqW8grSKcpBThJz5sic/10tWegAb++uuHjxpLratchJkglxlgSrPBIRxU57u6T4kukIKff86bBPjYQhpmmFqCHXyC6K1lq09NAXNE4/MB1Z/LPEnDB088DLfV5GkyVNcDX0qrp77KScggzNy07JGjWAEiWAr782tg9KyJ/z5XuAt9/eoHWY+zFhwgM9sXBFcs6DLSWe4xMyIiHbL4mIKHbaWybFV1h4GMbtHocPBn9grF+wJWHQOv/0fdOj8eLG8Nvsh9mHZ6Pp0qZ4uefLMScM3T3g2cMTBSYUwOnbp9XdY7ZpE9CxI5A7t2UHGVN8+SXw22/GFICLrX1EaKiR+Ng6xWBryBkVrVoZBZ+IiCh22tsmxdedB3f06QSZZrC64DEytOte93sdA7YMwJoza7Dk+BKUCygXe8Ih7Vqi8enQT3HsxjF1d0syfD9/vjHEbtZB2hKyXmD0aOCqbQMZCeaff4yFialSmf/ccQ2p01CxIrB1q7oBERHFSnvrpPi6HXYbPdb20A+QsjlhiIzuHkjhkwJd13RF/039kXVwVqsJw3+G/AdHb5jXSrh3z1ib4Iih+zfeMOoaXL6sXtxFSOcu2yUzZjT/uW2NV18FypY1KkkSEZFttLdPii8ZYei7qS8y+WWyKWHw9FY7IbTOX1/z0NkD1eZU03dKlJhawthlYZY0qIQh24hspjslZL3ChAnA559bdo7xjddfB3r3NhZMugrZ3SHFnP74A3j3XWOUwOxnjylSpDC2WcrUixzPEeG8WlhEREmO9jZK8fUg/IF+dsSHQz40koCYRggktMfS9EyjT1+k75MeKbxT6CMMMkIh6yD0Og7yfLPXkNEI7friU4vjQohlmejt24Hs2S07SHtDDm6aNUvdxIXcuAEsWgSUKwe88oqRCMSUPMhjErL+QU6wlMOpuCOCiCjutLdUii+pvLgjaAc+G/6ZUbExekcfNbROXxKGn6b9hCn7piDgQABmHJyh12SoObcm0vmkM3+ehPbctD5pUW9mPdx+dFvd3SDFiqpWtewoHRWFC7vmPL+MNkgl68WLgV69jPUIsnBTpiteegnIkAH44gugfHnA21vOyzBGFZ48US9ARERxonUJZI/LIZfx3ZjvrG+r1B6TEQU5ybLxksZoubylHqWmlbK+BsLXA6k7pkaOWjnwa91fMXDAQGzbthX37t3Tz0+QztGss3dEvPAC4Oen/rIuSnY5yDkQgYFAQICxDXPGDKPa4969RsVIIiKyj9YlkD1ka2XrFa2Roa/W6cu0hFmHHzXkGjmgqqMKqckgaxfMrpVQSciHfT9Ehz4dUL9OfdSoXgNNm/6Kjh2Hap+sLyBlyqemnX30kG2EsthPjoBOndr8GrOoVMn4NE9ERMmX1h2QPaR407agbcg5JqfR+Ufv8O2NLh54qfdLaP93e+OG4TJFsBV9+nRFvnw+Wod+QIuI5zr4mCJnTmN74sGDwFdfAZ6e5tdFD1lgOGqUcXsiIkqetO6A7BUeEY42K9ognW8620YZbI0eHvDs4olik4vh4DWtl49C1k+MG/dE69AlLDt5s5DDmLZsMWo1yE6DuNQ0aNtW3ZiIiJIlrSsgRzh+8ziqzq2KlD1sOOLa1tBe5z/+/8GInSP0BCG6YcMsO/aYQnYKjBsHDBkCNGkCzJsXt7UP9er9e2gVERElP1pXQI6y6PAi/M//f9bXJVgLtW5Bzo/ouLqjXu8hOqm94Otr27SCXPPdd8CYMcZ6hCJFjN0FOXKYX28WUmVRKkkSEVHypHUF5CiDhwzG11W+xse+HxtTE/FJGiRZ0J6XsV9GdFrdCeeDz6tXf55UduzWzbaEQWoUyFkMPj7Aa68B77xjbEWUkQapemj2nOhRvTpw/bq6ORERJTtaV0COMH78eBT/oTi6duuK+Xvmo+HihnqBJr0+Q/RzIuTPkRHZJsmFbM3Uri0yqYhe/VG2bMZEDoiSEQazzj16pE1rjCjI1sMBA4ypDDmgStoyZzZ/TvSQEQZJUoiIKHnSugKyR0REBAICAlCwYEF07NgR168aH8MvhlxEn019UGFmBXzg/8G/2ylVUvAsZPpCi1f6vYL84/Oj+dLmWHt2rf4a1gwebNmxRw8ZXfjvf40aBXJ2gux2kKkJWfgoOyZk54TZ86JH/fospUxElJxpXQHF12PtY/6CBQtQqFAhtG/fHhcuWJZtPn/nvL5oscrsKigwsQDyjMuDXGNy6dswc4/LjXwT8qHYlGLo8HcHbLmwxXRxY0wmTzYKK5l18JEhCxu7dgWGDze2Uka2Z80KTJli7H6Qw6aiPid6yIJJmdIgIqLkS+sOKD4kWVi6dCmKFCmCNm3a4MyZM+oRS5IEyNbL4AfBOHT9EDac26CPIuy4uAOXQi7h0ZNHePI07jWLV682zpCIbR2DHLYkOyMaNjTOXYhslz/LzgeZ1vjss+efEz0++MA43IqIiJIvrTug+FixYgVKlCiBpk2b4uTJk6rVNlLsScJecvx0p07GGgWzjl5CRiAyZTIOX4raLkmGnLkgowtp0jz/WPSoXRs4cULdlIiIkiWtO6C4WrVqFX7++WftE3o9HJfzlhOJrClYuhRIn96yk3dkDBzIQ5uIiJI7rTuguFi7di3Kli2LmjVr4tChQ6o18Vy5AjRtCqRLZ9nROyLk7AkpJU1ERMmb1iWQrbZt24by5cujSpUq2Llzp2pNfLJdMnduY3GiWacf3/joI2DJEnUTIiJK1rRugWyxZ88ePVGoVKkSNm/erFpdg1R9lB0PsgDSrOOPT2TJYkxF3LihbkJERMma1jWQNQcOHECtWrX00YWNGzeqVtci6xlGjAC+/db+kYbPPwe8vYFbt9SLExFRsqd1DxSbw4cPo379+voixw0bNsSpTkJCCw83FkGWKmW5K8KWkHUQUshp0iRWdSQioudp3QTF5NixY/q2yeLFi+uLHZ+4wVYBSRpOnTJKQMsUhWyZjO0Y69Spja2XUshJijPJeogHD9SLERERKVqXQWZOnz6NFi1aoGjRoggMDNRLQLsTOVlS1mVOnQq0aQPt72EkBbIFU0IOoMqXD2jcGBg92jhb4upV9WQiIqJomDCYkBLPrVu31qs4zpdDF9xcUJDs8AAWLgSmTzdi3jxAlmNIzSmeEUFERNYwYYjmypUraNeuHQoXLqx1rFrPSkREREwYorp+/Tq6deumnzw5SVb+ERERkY4Jg3Lz5k3069cP+fLlwwSetERERPQcJgya27dvw9/fH7lz58a4cePwUCohERER0TPJPmEIDQ19liyMGjVK/56IiIie5/YJw549wPjxxjHPDRoAdeoYX+V7ad+926hNYObRo0cYMmQI8ubNi8GDB+MeqxURERGZcsuE4ebNf+sLSFXDjz8G0qbV/jLa3yYy5Htpl8dbtjSuj3ouwpMnERg+fDgKFCiA3r17c2SBiIgoFm6VMEihxa1bgd9/N4oQRU0QrIVc37GjUaDo9u1gTJr0l74bonv37hxZICIiskLrSt1DSAiwYAFQqJBlMmBrSInkPHmewtf3GMqWrYQePdrrCx6JiIgodlo36voePQJkp+PXX1smAXGPJ0iZ8iJ++WUNTpw4pe5AREREsdG6UNcmh0NKSePcuaN3/PbEI7z/fjjmzFE3ISIiolhp3adrO38eKFnSOFHRvPOPf1StCuzdq25EREREMdK6Tdd19y7QtSvw0kuWnb0jIkMGoEcPdTMiIiKKkdZtuq5Dh4DPP7fs6M2iQAGgVy+gc+d/Q0YQ3n7b/PrIKFIEOHBA3ZCIiIhMaV2mawoLAyZOBDJmtOzkzcLPD7h/Hxg5EvjrL+NrixbA+++bXx8ZklD4+KibEhERkSmty3RNp04BtWpZFmSKKQYMAObNM3/MWpQubezEICIiInNad+madu4EvvzSsnOPKfr1A/7+2xgxiIz06YGUKc2vjxpS2yEoSN2YiIiILGjdpWtas8bo8M06eLOQxYtSsHHRImDJEuNrs2ZApkzm10eN778HNmwAIiLUzYmIiOg5WnfpmlauBFKksOzcY4revYFdu4Aff/w3ZMGkLVMaOXIYVSRjOqSKiIgoudO6S9cUGGjZsccWsuhx7lzzx6zFV18Zz2XCQEREZE7rLl2TrEewdcGjhD0JQ86cwKpVnJIgIiKKidZduqYtW6xviYwagwYBJ08CZcv+G/nzA6+/bn591JDrjh9XNyYiIiILWnfpmo4cAX76yfaS0E2aGAWY5s//N/r2BbJlM78+ahQvbtRwICIiInNad+mabt0ytkq+9pplB28WMn0howlR49VXjSOtza6PjNSpgd9+43QEERFRbLQu0zVJB75tG/Duu5advCNDTsFcsULdlIiIiExpXabrun7dqPb4yiuWHb2jomFDIDRU3ZCIiIhMaV2m63r8GNi0KW4VH+MS331n1HsgIiKi2Gndpmt7+hTo39/2tQy2hpSOHj0aePJE3YiIiIhipHWdri84GOjUyfaTK62FlIvu2hW4cEHdgIiIiGKldZ/uQXZNdOkCvPkm4OlpmQTYGh99ZCQLFy+qFyYiIiKrtC7UfcjixMmTjcqMcTmYSk6sTJcO+OYbYOZMY8SCiIiIbKd1p+7lwQNg715g4EAgb95/CztFL/Ak38tIhCQLsnVy8GDjeQ8fqhciIiIim7ldwhDp7l1gxw4gIMBIHqT4UuXKRknoKlWAli2BAQOAGTOMeg5y9DURERHFj9smDFHJTodz54B9+4Ddu4H9+40FjbItk4iIiOyXJBIGIiIici4mDERERGQVEwYiIiKyigkDERERWcWEgYiIiKxiwkBERERWMWEgIiIiq5gwEBERkVVMGIiIiMgqJgxERERkFRMGIiIisooJAxEREVnFhIGIiIisYsJAREREVjFhICIiIquYMBAREZFVTBiIiIjIKiYMREREZBUTBiIiIrKKCQMRERFZxYSBiIiIrGLCQERERFYxYSAiIiIrgP8Dqj5eT2iNg9gAAAAASUVORK5CYII=;" vertex="1" parent="1">
          <mxGeometry x="152" y="90" width="524" height="355" as="geometry" />
        </mxCell>
        <mxCell id="058cRxedPbUTStPQTcPn-4" value="" style="ellipse;whiteSpace=wrap;html=1;aspect=fixed;" vertex="1" parent="1">
          <mxGeometry x="380" y="520" width="20" height="20" as="geometry" />
        </mxCell>
        <mxCell id="058cRxedPbUTStPQTcPn-5" value="NÃ³s / VÃ©rtices" style="text;html=1;align=left;verticalAlign=middle;whiteSpace=wrap;rounded=0;" vertex="1" parent="1">
          <mxGeometry x="405" y="522.5" width="90" height="15" as="geometry" />
        </mxCell>
        <mxCell id="058cRxedPbUTStPQTcPn-6" value="" style="endArrow=none;html=1;rounded=0;" edge="1" parent="1">
          <mxGeometry width="50" height="50" relative="1" as="geometry">
            <mxPoint x="380" y="557.3" as="sourcePoint" />
            <mxPoint x="400" y="557" as="targetPoint" />
          </mxGeometry>
        </mxCell>
        <mxCell id="058cRxedPbUTStPQTcPn-7" value="Arestas" style="text;html=1;align=left;verticalAlign=middle;whiteSpace=wrap;rounded=0;" vertex="1" parent="1">
          <mxGeometry x="405" y="550" width="90" height="15" as="geometry" />
        </mxCell>
        <mxCell id="058cRxedPbUTStPQTcPn-8" value="A" style="ellipse;whiteSpace=wrap;html=1;fillColor=#FF3333;" vertex="1" parent="1">
          <mxGeometry x="210" y="510" width="20" height="20" as="geometry" />
        </mxCell>
        <mxCell id="058cRxedPbUTStPQTcPn-9" value="B" style="ellipse;whiteSpace=wrap;html=1;fillColor=#dae8fc;strokeColor=#6c8ebf;" vertex="1" parent="1">
          <mxGeometry x="280" y="510" width="20" height="20" as="geometry" />
        </mxCell>
        <mxCell id="058cRxedPbUTStPQTcPn-10" value="C" style="ellipse;whiteSpace=wrap;html=1;fillColor=#d5e8d4;strokeColor=#82b366;" vertex="1" parent="1">
          <mxGeometry x="280" y="565" width="20" height="20" as="geometry" />
        </mxCell>
        <mxCell id="058cRxedPbUTStPQTcPn-11" value="" style="endArrow=classic;html=1;rounded=0;exitX=1;exitY=0.5;exitDx=0;exitDy=0;entryX=0;entryY=0.5;entryDx=0;entryDy=0;" edge="1" parent="1" source="058cRxedPbUTStPQTcPn-8" target="058cRxedPbUTStPQTcPn-9">
          <mxGeometry width="50" height="50" relative="1" as="geometry">
            <mxPoint x="350" y="510" as="sourcePoint" />
            <mxPoint x="400" y="460" as="targetPoint" />
          </mxGeometry>
        </mxCell>
        <mxCell id="058cRxedPbUTStPQTcPn-12" value="" style="endArrow=classic;html=1;rounded=0;exitX=0.5;exitY=1;exitDx=0;exitDy=0;entryX=0.5;entryY=0;entryDx=0;entryDy=0;" edge="1" parent="1" source="058cRxedPbUTStPQTcPn-9" target="058cRxedPbUTStPQTcPn-10">
          <mxGeometry width="50" height="50" relative="1" as="geometry">
            <mxPoint x="230" y="530" as="sourcePoint" />
            <mxPoint x="290" y="530" as="targetPoint" />
          </mxGeometry>
        </mxCell>
        <mxCell id="058cRxedPbUTStPQTcPn-14" value="" style="shape=image;verticalLabelPosition=bottom;labelBackgroundColor=default;verticalAlign=top;aspect=fixed;imageAspect=0;image=data:image/png,iVBORw0KGgoAAAANSUhEUgAAA3sAAAHxCAYAAADUeaV0AAAAAXNSR0IArs4c6QAAAARnQU1BAACxjwv8YQUAAAAJcEhZcwAADsMAAA7DAcdvqGQAAJDYSURBVHhe7d0JvA3lH8fxn7WIKITKkmTLGpF9a7dEpYQkLdpLUtG+92+TaKESSkSSSrtUpBIhKYmESvadrOd/vo8ZjdM5d3Mv9879vHudV+7MnHPmPLM9v/k9zzM5IlEGAAAAAAiVnN7/AQAAAAAhQrAHAAAAACFEsAcAAAAAIUSwBwAAAAAhRLAHAAAAACFEsAcAAAAAIUSwBwAAAAAhRLAHAAAAACFEsAcAAAAAIUSwBwAAAAAhRLAHAAAAACFEsAcAAAAAIUSwBwAAAAAhRLAHAAAAACFEsAcAAAAAIUSwBwAAAAAhRLAHAAAAACFEsAcAAAAAIUSwBwAAAAAhRLAHAAAAACFEsAcAAAAAIUSwBwAAAAAhRLAHAAAAACGUIxLl/RsAAAABq1aZbdtmVrCg2eGHexMBIIsg2AMAAAhYu9Zs6FCzCRPMli3zJkadeKLZeeeZXXihNwEAMjmCPQAAAM/MmWY33mg2b57ZypXexICKFc0aNTJ7/HGzI47wJgJAJkWwBwAAEPXLL2YdO5rNn2+2ZYs3MY6jjzZr3Njs9dfNcjL6AYBMjFMUAABA1D33mM2alXSgJ3/9ZTZ9utkrr3gTACCTItgDAADZnppv/vij90cKLFxIsAcg8yPYAwAA2Z6CvSVLvD9SaPlys59+8v4AgEyIYA8AAGR7CxaYbdzo/ZFCmzebrV7t/QEAmRDBHgAAyPZy5fL+kQp6DwO0AMjMOEUBAIBsr0YNs2LFvD9S6LDDzIoX9/4AgEyIYA8AAGR7NWuaFSm2y/srZcqX3/MCgMyKYA8AAGR7324dYYuLvGS5DlvvTUla5cpmN93k/QEAmRTBHgAAyLY2bd9kXcd1tS5vdbF2V86xBqfktFKlvJkJVKhg1qqV2amnehMAIJPKEYny/g0AAJBtjP15rPX6uJflypHLbm14q/Wo3cM9TqFPH7OvvjL79VezYC3pkEP2NNu8/HKyegCyBoI9AACQrezcvdOuff9aGzxjsHWt0dVurn+z1Shew5u7xzffmP3vhcX29tS51uyYs61wYbNTTjE791yzE07wFgKATI5gDwAAZBsT5k+wWz+91TZs22B9G/e1q+tc7c35r0HTB7nM36a+m7wpAJC10GcPAABkCzd/dLO1Htnaapaoae90fCfJQE9+X/+7VT2qqvcXAGQ9BHsAACDUPlv0mdV9sa6NmDPCnj37WRtx7girVbKWNzexRWsXWbXi1by/ACDrIdgDAAChddeku6zl8JZWpnAZ+6DzB3bNydd4c5JHZg9AVkewBwAAQmfq0qnWfFhze/a7Z+2Zs56xMR3G2EklT/LmpowyexWKVPD+AoCsh2APAACEyqNTHrVmw5rZ4Yccbh93+diur3u9Nyflfl/3u63YvMJOOJKhNwFkXQR7AAAgFGb+PdNav97aHvzyQXuk5SM2vuN4q3N0HW9u6ixYs8D9v/yR5d3/ASArItgDAABZ3oBpA6zFsBa2O7LbPrvkM+tVv5c3J20U7B112FHeXwCQNRHsAQCALGv+6vnWcWxHu+XjW+y2hrfZ+53ft7rH1PXmpt2CtQsYiRNAlkewBwAAsqQhM4e4bN6qzatcNu/2Rrd7c/bfb2t+sypFq3h/AUDWRLAHAACyFDWxvOTtS+yydy6zK2tfaZ92/dQalmrozU0fi9YtshOKMDgLgKyNYA8AAGQZg2YMsqZDm9rS9Uvt826f291N7/bmpC+NxsngLACyOoI9AACQ6f2w/AfrMKaDXff+dXZVnatcs82mZZp6c9PXkvVLbN0/63jsAoAsj2APAABkav2+6eeem7f+n/Uum3dXk7u8ORmDxy4ACIsckSjv3wAQesuWLbOBAwfa559/boceeqiddtppdtlll1mxYsW8JfZYv369vfzyyzZhwgTbsGGDVa5c2a666io75ZRTLGfO+PfJvvvuO3vppZfsf//7nxUuXNibuodOtdOnT7chQ4bYrFmzLH/+/NaqVSvr1q2bHXnkkd5Se7531KhRNm7cOPfvmjVr2iWXXGJ169ZN+L1btmyxxx57zE466SRr27atN3WP3bt32zfffOPW6+eff3af0axZM7vmmmvsmGOO8ZbaI/jdq1evTtFv9r3zzjv2wAMPeH/9V8mSJa1///523HHH2aJFi+zGG2902yJW3rx53e/o3Llzkr85SGX7yy+/2JgxY+yrr75y616kSBFr0qSJK7vY3yl6z2+//WZvvPGGffnll3vf07BhQ+vQoYNVrFjRcuTI4S1t9s8//9hDDz1kH374oTVt2tTuv/9+tw1jrV271nr16mVz5syxu+66a+/20D43bNgw9+9EgssnVZ7J/batW7fae++9Zx988IHb5qJteeGFF1rz5s1dGfvWrVtnPXv2tNq1a9t1113nTd1D+87s2bNt9OjRNm3aNHccHH300W7/ueCCC+J+d6xE2zp37txunc4991x3DB5yyCHenH/X6ccff/Sm/Fdwf0rOmjVr3D49ceJE+/XXX1O0jw2eMdieGPeElZxc0k488UR79NFH7fDDD/fm/kvbdcaMGdavX7//HPPxqEy1vMr0+++/31umZ599ttvvgueCIC13++2329y5c23AgAFWvXp1b86/0lLWvtQeD74VK1a44+7jjz+2v/76K9XHb3LnDdF+HrtvJvLDDz/Y9ddfn+Q286VmWyR1zvJVrVp1n/1AZar10TnVP36SO3bTUp46Xt599113vAf3b51LdK4KHu+SlnOLyqdHjx42aNAg99lBOt98+umn7hgLnm/OOussa926teXLl89NC9q1a5dNnTp1b9lv3749RceBz98el19++X+ueZKS7SX+NtO+r98Xyy9Lne8aNGhguXLl8ubsS+uv677KVteJ008/3ZuTOeS6N8r7NwCE2h9//GE333yzq7gr2KlVq5a7QCoIq1+//t6Lki7Kd955pwveOnXq5F66oA4ePNhKlChhFSpUcMv5dFGfOXOmCwBUkTrzzDNdIOnTfFW+7777bldJ00VFF8Px48e79zVq1Mi9T5XSe+65xwUUqph17drVXRSfeeYZF4zqe2MrXJs3b7bnnnvO3n77bXdhV6XMp+9VsHrfffe5C5a+V79TlTlVDk4++WQ74ogj3LKrVq2yPn36uMrJpZdeauedd56r8D3//POuQl2uXDm3XCIKtlSO55xzjrso6vuCr2rVqrkL62GHHebKUr+xXbt2bp0U9PovlY8CpREjRqToe3WRfeWVV0yXskKFCrl1V9mVKlXKVUBU0apSpco+FReV6euvv+5+rypPXbp0sY4dO7qyU+VP21llp3X2L+47d+60yZMn24IFC2zjxo2uEly0aFE3L0iVHQV1qkgGt4cqe6q8ad1UaYstH71UQdX+JSpPBTu33HKLC9L88tG+pYrQRx99ZF988YXbnsEKrSp7N9xwg3399dd26qmnun1IwZm2r240qPKj78+TJ49bXseCPksVLU336QaCgopHHnnEjjrqKHdDROuu5SZNmuRuHmj6CSecEDcI8PnbWtuxTZs2e3+r3rdkyRJ766233HFZp06dvceMv0478++034v/bkeVP8paNmxpzeo32/v+4P6UiLahyl2V/99//93tbxdffLErM5Xviy++6JbTeSC2Ev3G3Ddsw48brNDWQrZy5Uq3bbRPxdLnq0xjj/l4dKyqQqhy1bGsGz0qE20/VZRVTsFjMkjr++abb+69waDlYtc5LWUtaTkeRBVkVah1DtP6aD8rX768/fTTT25dtV/UqFEjboDiS+68oZeO37Jly3rvSEzr+P7777ttndQ2k9RuC79sta+oIp9oPfWdOra0Ljrn33bbbe4c1bJlS3fTTJ+v41bzVL7B81JaylPL6j26gah9UL9D5x39ft2s1LlUN3IKFCjgvSNt5xbt41pnlZFutPgWL17sPkdBjr5X51+Vz44dO2zkyJEuaNUNSwWRPu1vOn/o3FKwYEH3vfq9ouuVzrPaR+MdBz5/e6jcg9c8n87Xusmh8vK3jX6DyjN4bPjbTOdH/b7GjRvvs33LlCnjykrlv23bNvdb9Lmx9Nn6vTquVH/Q9cE/x2YK0R0SAEIvWvmORC9+kc6dO0f+/vtvb2okEq28R6In/8iYMWO8KZFI9AIaiQZgkehFx5sSiURP9JFoMBe59tprI9GTuTc1EolW/CPRSnQkWlGJRC9QkejFNrJ27Vpv7h4rVqyIRCuZkRdeeCESvQh5UyOR2bNnR5o0aRKZOnWq+zt6kd3nb9F6Ry+kkQ4dOkSWLl3qTY1EohfMSDQwi1xxxRXue/WKBo/e3D387x04cOA+36vfr3Lo16/f3un6/dHKfGThwoXub/F/c+/evSPRypE3NT59t8oxWmHxpiSmZbRs7Pr6tN7R4CLSq1evJL9XZRMNciPRSpT7v8okKFohcOt+wQUX7FN20Yu6276jR492vzFI5aGy0GdGA0X3HbJ169bInXfe6cozGjREohd2Nz1Iy6qsL7rooki0wrDP74tWKuPuG4kkV57aR7SvBNfDL7crr7xyn31ctG7RIM29Jxoc7/1dWh+tl9bPpzKIBkKRFi1auPfElms0GIv079/flVHwGInH39bBz/fpc/3tp+/z98V3Z78bqdeqXqRc53KRx756zE1LC//YvuuuuyKbNm3ypu6h79L21Xd/8skn3tR/tX25baRp26ZuvbQP6TiI3VckpdtV36d9Q2WqbeeXv0/7pz7nuuuui6xfv96buofeq2NVx4POYTpOg/uzLy1lLWk5Hvx1ij1niD5Dv/Wss86KzJ8/35saX2rOG8nxz3fJbbO0bIvkzlmx/HW55557/nMO07Gp4zR4Xk1LeS5atMgt37dv38jq1au9qf+KBnpufjQYc9cpX1rOLdGg311j9H+fvvPqq692v2XJkiXe1H/9+eefbl7sNVe/Qb8l9noo0UDUrVvw2hRPardHvPNckP/74n2eyv/55593x4COlXh0jHTq1Mn9X/uVru2ZSeLbLQAQItHKnmsuoruVykj4SpcubfXq1XPN1ZRRkOjF391BDzbtVHMO3WnUHeFoxcmbajZ06FB35/v88893WcN4lC3Te6IX3n3ujCuL5d9BlehFcG/Gwqe7udGLjLtLqM/x6Y7qHXfc4e5Iqgln8D0+3d3VfGVsgt+rjJS+R5k73YFVpkrNWtV8JphJ029W00J9frwmixkluH66K56IftvYsWNd0x81GYrNICjTpyyFMra68yoqEzVV03uUTYht4qRyUrMgvZQJiVZYvDl7KFOg7aVshLJfQVofZYP13nhN5dKT7mbrrrO+06d9SZm9a6+91ooXL+5N3UP7kTInKqdoxWvvvh5PtCLlfnu0suru1seWq35btOLk7r6rLHUnOy30uVofbQtlAJb+tdTu/OxOa/9Ge8uVM5ddVPUi692gt7d06uh4U/Zax000+P1PBlDbWd+tO/DRyr3LBAQtXrjYtq3e5o49HT/KlOqYSyuVqbIWao6nz4zNhh577LGuBYH2Ke33Qcr4a79SBkKZBzWbU9Ps1Igt6+XLl7vpaT0edN7QeiozomxvkD5DWWXZnzJLLWWs9H3JbbP92RYppeuNsk/KDsWeO3Vsqny0btq2ktry1P6t1hzKMkUDrrjNHnVN0DztK6nZX+KdW+L57LPPXJkrsxgvg6rf4TelVAuaaMzhput6o/1O2bzgdUmOP/5414xU18LY8+vBovLX/uC3BNL6B2k9Vb7adjrHKlursgnWEw42gj0A2cLatWtdRUUXpeDFXZVBXWB0EfUvLlpGTVWGDx/uLsYK/tRMRs3XVDlU0xOf+mc8+eST7qKWqEmZmvYpiFIF4MEHH3SfoaYrChRVcQtSM5DYC6BPlRSfllHTGzWH0UUoHl181KzJbyLjU8Cq3+t/ly7qaualclBF8KKLLnIBjZq/qQmRf5E+UFQmqoCrPBOVhaiiobKN7YcWpIBa5eyXgf8eVZoTvUfTzzjjDFcmWj5IlWYFQKqMaB2D1MRTla/YZr4ZQZUlVdj9fc6vcOh3qqlSPPpd6velV7x+ND413VNFRftAbEXYp+Zd6v+lGxAqp7TSOmn7qY9NxyEdbeC0gfZAiwesQpEKVqLAniataeEHSPoNwWZnQfoNTzzxhGt6FmyapRsMm3/ZbGUqlHGVXjWD03w1L0vrseCXqY79RGWq8lTTu9h+iGqqp+aX2rY6N2l9VJlMbZAdLGs/aEvr8aCAX+up84NuMMSWiwIGnXv8ICWjaZvp/KybRMlts/3ZFimlZosKGr/99tu9AV2QmskqyNYyktry9Pdv7ROJ9m9ROagZr9ZDAWVKxJ5b4vHPN7r26LqRiL5bAZBujun6J7rZqpus2jax1z+d79UsVF0TgtfZg03nCgWhfhPhIJ33tS1040DbQjeP9dv8G4yZAcEegGxBF3e94l0YdedVd2E1QIkoo/f444+7O3iq5OjkfcUVV7i72+oDFQxAlDnSxSw2++FTJUTBlDKHCp7Ud0IVzPbt27s+Q8qa+VkW9ddSxU4X+yBVsIKBnuhiqf5uyXVkj6VKhDJA6svRokULF+zqd+sC9vTTT9trr73mOuerk/m2bdvcOmudDhRVYNV/SAOtqAIa7GsSS+Wqu+Sxd8KTovdoH4g3OEKQsrjaD2K3haj/kCppwXLRvqUKlSo/ifqaqO+HKpGqoMW+tG+pEp4c3XhQoP7CCy+4/dDPCmsfWrFihQsGkgrkkqP9QxU9lWlsdjCWykCVvv0J9tZuXWvDfhlmu3LvskI7C7mRNq+qfZWbp76P8cpKL2Wck8pO6tjVfq3AN6kbBvF8P/97y78iv+tLqwqn9hf1/VGFNfaufkr4ZaryjB0IKjn6jao46jfrhpFu0OjfGqhFFc/U0s0pne/8imhajwcFSeoDqQCle/furmXDs88+646B1AahWhcNgBHcvsGXWmQkR8GrKtzJbbP92RaigU3iraNeAwcO9JbaExzomqHzrG7KKcOm/sMKrOMFXaktT3//1o2lpPZvnQu0bXVuiQ2sYiU6t8Tjn290Lkyq1Yf2V5W1to9uuIrWR9cu9fNT8KrgTll4raPOo5mV9hftO6or+LQ/6fjUuVA3FrUdVW7qn63APbMg2AOQLaiZll4pqfipAqTBVnQ3XYMW9OvXz40qpgEudHc1NRckXUC1vCo0uvgrA6iLgZqWaTAWDSLiBw1+h3x16tegI2qGNGDAANdMNKm7pymlC5MGZ1FQpyDVH5BD66iyUcVAWUplHRUIKuDVQDKqpPhZz6QkqrQlCmTiVZw0kIE6uivIVECc6M67aPsoyE5qmVh6T0qocqu787HN+0QVOTVhDDbl1J12BXMKUBNRZUHlrhHkYl9q4hsb2MYrT914UEVQTTEVkPuDE6jip0qI9u/UlEcsBfja/1NCZaRKdbwySok3f3rT9DiF9xa9Z4UOL2TXnnyt1SxR05u7Jysbr6z0UjkkdSyrLFQxS3QTJimTvppkOSI57IzGZ7i/VWHVdtVxqiArtfwy1fqmdn2UPVYmSlkDv1KtpoFq6pyWpmLK1qh5s29/jgfdaNIgJxqhUQNXqMKuUTN1DGsArJS2CtDv0j4dbzvrFRzcIxGVkdZNmSxJtM32Z1uIPjPeOuoV25ReN35040qDfSnLqHO5P2CSzrOxGb/UlKe/fyfHD7a0n+g870vNuSUe/3yTEroxqe/391WdnzQIyujRo915XuXw8MMPu/XRdF37kgtMD4Z4N/G0LykgV/n5N151Dde217U9JdfNA4FgD0C2oIutXslVjnQx1R1H3ZlTBk6VcN0t1kia6pOnC7aa8KWW7tjqguBXxPV/BQyarqyfqAKnEcp0wVOGTZUE3QXWhdcfpTGtdKHXaGN9+/Z1fXPU5yq2sqxmTcG73aoU6s6r7uanJABIVGmLF8iIAh/dvdZLQbWyUvo+VZDURyJRszKfKhH6XSmpUPrijaAZj+6mqzKjfSaWv+2CTTmVfdX6JjVqoCpdyprqrnbsS9sjNtOgyoMyWCofjciqiqICTVWQ1DRVFQp/f/Ir49q/U1MesZTpDQYDSfEzwvHKKCl/bfzLrnrvKveAdDXXfLbls/bPhv9m6fT74pWVXrr5onVNxA9EgxXclNB2/+6r72xXsV37ZLv8vlSqwCXVjzSeRBXu5Gg7KmsgylL51AxOwUBamor528y3v8eDziEKPrWfqj+TmoHrkQeqrGs/1Q2R5Gh/U0U/3nbWS80yk6J1U+CrYCu5bZbWbeFToBZvHfXSvFg67ymzp+uGbrRppE+dEz/55BN3zos9r6a0PBW0p6RVh9+yJDa4Tc25JR79rpQ2s9S1VN8fe73R+UrNWXUTVWWj876ym/7jizJLoORTEBxLNxN0fQzefFK56PqgIFBNPDMDgj0A2YJ/sYlXOdJFRc2bVOnQRVV3UJV9C1YydOFTsKYLVLymfYn4lWddnGObu+jiq3WKvVuuoFLPBNNL/1YFReud0opZLF3w1f9ETUbVnEgDeAQHEPErDvHuoGsdVTHSS0GwfxfYf2maL1GlLV4gIwp0lV3USwGhgmsFUAqsUxJcqumMBjVQZSIRVWx1V1xDZ6typ/eoLP0+S4no+3VxV5+TeIJNOVU26r+iC3x69jPRNlIfJJWP9kfd5b/pppvc4zBUIdP3+rSPaH0UfCZ1V3zMmDFun0r0+7U/6nNUpsllDtR8UwGugu6UGj57uDUd2tTenve2PdfqORvTYYwV2r0nuNT3phcdzzpeVNkKllOQputZfcri+03l1DRy2aJldujSQ13fTH8/V5ZZvzetA7WojFSesf19gnTDQIGABksSNdVT5V7v0c0Pf110U0bHndYnNQNviD/giF/W+n96HA+ic6SCbGWinnrqKdfEUAOhpDY4Ti1tM2Xv1GcvJdssLdsiPfjH1qWXXupu6s2bN889uiORpMpT52vt3zpfJtq/Rf2zVQY61wabd6fm3BKPrhm6maKyTyooU3NP7VsKwuNlxny6Tmrf0nooCNXjH9JyUzUjaZ/Rb/Z/h7aDAjpdv/W4G3+/U5mqHFUumWWgFoI9ANmCTtC64KgyHMx8KHO2cOFCdxHen75OifgXeFWy/D4LPn23Lhh+EKcLg+6wxgYvWmddsNMy8IcuOLqrrKaYuohqBDqtU5BfcYgtG9H7FcAk1XcuvahPkgYPUQVd/V+SqkSIMoGqIKiSl6hCqUqbAjLdtVbgqqZJapqqykSiPl+6OOszlRVI1JTJv3ur/kQqN1U29XdSd8P3lz5boyYqeFaFTE2K/e2lYE/ZH/VbSnQ3WQMkqHKp351UUKqmcNpHVAaJKir6LGWWNEJkSoI99c275O1L3KvO0XVc37yr61ztttvUqVPddtT2TC/a3moGqop+ouyXAhiVl8pV5affqmMwZ56cdlSro/Zmnf2XHpavY1i/O7XZU+1zKlP1RY33Xk3TIFC6kaTjUbRPad/V9o5dFzWxVnMxra8fqCYnXlmn9XjQwDwKOqdMmeL+jqVgQMvrvWnJoKWUv830fWoWH1tO8bZZWrZFaqk/ts61iQJK3fzSOde/0Zfa8tR6KbBQRkzXhkS0D6mfoJZNKhOe1LklHt24VNNiHT/BZrKxFAyqia2ylbqGaB/UIGXqpxfv/K710HVaGeSM3G9Sy2X8o7+1UqVKLjMsuoGg84tGuY3d79RVQuWTlux7RiDYA5At6EKjC45OzupY7tOFUnfnNE/Bnl5q/qOLaHAABF34dLLX3b2UPOA3SJVnXdTVJEcXa9HnqeKlPjP6PtFFTp+vvl8+XRB1F193YRONspiIvuvVV191F241BVLz0HjBiF9xUKUp2LdOFRU1gdIFTlk79b1TGQRfmpaetB2UHVTlUxXMpKiypCZS+n1q8hRbOVDQ7DdJUiAmqmTpQcK6Y68+I7FBospMTa2UCdR6BJuFBakc9ZmqEGpdVRnT3fOMpkqqHnjvjzIazFioP5Eq8apsaD8K0u/SQ4iVCVKZKRhKREG3Mq3KAqq5WWy5qt+Tml6pYqqMU1KfJRu3bbTX57xuExdNtEGtB9nI80ZapaKV3Odqu2n7qY+of9MjPaic1PdUWU71eVWGI0i/QaMhqiKm8lCG0h/hMGfpnFalfpW9WWf/pcqw9iXtOynJPAepTJWhGTFihNsGsRVpVZi1P6ocdFNH20vBiCr4anYduy7KYGmwn9g+aYkkKuu0Hg/KcKgfsfZB3eyIpZssKksdE8FWBOnN32bKTun8FltO8bZZardFWqhJqQbVUtPE2Ey7v221Pv61JLXlqf1bTR4VwOl4jxdU6jqi/ubqhqBBxJKT1LklHpWPbvbo+2MHEBOdf9VaQ9cXHWM6Z+o40/VEvz9e1lfHpa45aqocfETSwaR11HbUsaZ9zG+hoyBW5xV1XYjd7xS4t2nTxtUvUpt9zwi57o3y/g0AoaULjbJ7usCoeaQq57qbqo7yulN32WWXuZO4llP/OAWACrJ0YVYWQ880Usd59TNTJTJe535dkNU0R/OVKfCpSZmCNl1AdQHUXUtVvDW8dPDzVGlW5VNZOC2jyoCW0UW+d+/erpISj+7IK+DQHetgJkqVFv0+BQD6PF2cgi81y1LlQfN0YVXFXgGpKhBaD/XlUGVKd8eTq4jrtyvLpbucSTXXEfX90e9XYBebOVM5qPmsto0Cc/WFUPnFo22lMlHZqpxUudG6K5hXpVb9PrT9dJlTpdmnSpUqTHqPfyH279zqjqy2tUbEU38SlY0oWNddWmnSpImbrhsD2k/UF1IVcq2rxPt9yqgpW6B9SX00Y7dFcHuo0pVUeWo/1fbQ/qn11h1krY9uaOj9GthBzx9URUTZY+2Taq6o4EZ37lVp9/dff99R+aiSIpqnCpn6dykr7JerstMayVXNgXWjQn2OVGnWdojnh+U/2O0Tbrdl3y+zI3MdaZ3KdrJ8K/O536qbKdo3ta76jRqwyO+j6a+TAlaVSWw5+S/95qT6sqpZsvZrDfij/UH7gire2s76bgUAOq4UOOk3qAKqwGZzzc3WomYLq3vMnvLwaZ/R+7V/6AaN9qPktquCKe2/fpkq66o+SapIa5pu9iioVqZOFX9ltnUe0HlC2SEF8Cpjf3v5tL7a3voN2sYKdtTsU/ud9olguSVV1pKW40HnT7VYUBCoirC+R0GKmp3qRoDWXTen1IRayyai/dzPzOt85a9z8KUbKlrHeJkpf5upeXq8m3Dxtllqt4X4x7TKxc9WxXv521vHkwJsnfN1LKr1iJolaluoSaYCb/Xf9c/9aSlPfY+CUX2+3ucf7/oujWSrY17z9TuCGcq0nFt0PdB5TgGMAlPR+U9BrfZBlaPKSL9ZAY7WR+dfvVfNpIPZf5Wtjm2Vzfjx410zT217XZfVvFXrpr6DSbWUSG57BM+lEu88F+T/PgX+wc/z10n7mY4BBcPaXvpedY3wb4zF2ze17+i36PfpONa+eLDkiP6wxHlaAAgZnXhVqdEFSgGZ7o4r0NNFOkhBji5GCg51YlcgpWY5ST3TTRdIVTx0NzU2QFFFUxcODbyiZjW6+Ol5dsqMBT9PFRMFe1pOQYwueKrI6PuTuvD17NnT9VEJZto0qpl+ayKqaOjB7H5gqgueKhbK8OniqDvCiSpRsfTbdcFXBUMX2aQoe6hRSdUnJlFmUIGeKilaRwWbicpcVMFQpVuVJFUatL10UdddfT0oPl5TLF36dDdaAZAqYApkFBwokFOmQxfxYHmrPDRQjvhlps9QGatipbvb/mh88X6fmqVquaQEt0dy5an9SUOkaz/RqKbB55lp31WlVXfIVXFR2Snw1P6rik4wcPD3HWWf1V8mSOWqAEZZDpWvX666u60Kjl/pi+fJr5+0hyY/ZEf8c4SVmVrGNq7e95EF/jqpfBRsBbevv07BDHc8apacaP8J0jGvsldgriBKlTCVgyrbCsa1nXWs6aaAgrY3Sr5hr1zwirWt+N/PVkCgbasBUjRqrrKGSW1X3SDS7/QpqFFwowq69lX9rWaVGnBGx6/flFyVZQXaeinTEo/eqwq1gk3tJ6roa910HAclVda+1B4PPpWt9g8F/35LiHi/JxHt59p/k6LjKt45NbjN1HLBD8xixW4z//endFuIf0zHlm2s4PbW8aOAQceibl6pTP1tEe9YlLSUp44XBfIKIBUY+9+hmzq6ARW7vdNyblHQov7Xsfuz6Jqlc42ufbq2ia5XWl+9N946q6x140jr7Z+z4x2XiSS3PWKvbUmd58T/fbG0Tn5Z6r3+9tL1SX2f77vvPnc+jCd4fUjqOD4QCPYAAEC6+Pz3z+3hyQ/bJ799Yt1rdbc7G99pxx2R8c1b08v6f9Zb4f8Vtu97fG+1StTypgJA1rXvLQUAAIBUUr+8PhP7WPNhzW3dP+ts7AVj7eW2L2epQE+WbtjTX6rU4ek3WAwAHEwEewAAIM30cPQmQ5vY0988bfc2u9cmd59s51Y+15ubtSxZv8Ty58lvRfOn32AxAHAwEewBAIBUW7RukV3+zuXu4ejHH3G8Tb50st3T9B47JNfBG4hgfymzR1YPQJgQ7AEAgFR5/rvnrckrTWzK0ik2pO0Qe/OCN93z87K6peuXWunCKX9IPABkdgR7AAAgRab9Oc3ajWpn17x/jV1w4gUum3dprUu9uVmfmnGS2QMQJgR7AAAgSbt277IHvnzAmg5talt2bLGJXSfak6c/acXy7/vIkqyOZpwAwoZgDwAAJPT+r+9b02FN7bnvnrNHT33UPr74Y2txXAtvbrgos1e6EM04AYQHwR4AAPiP5ZuX240f3mitXm9llYtWdk02b6x3ozc3nMjsAQgbgj0AALCP4bOHuwFYvv3jWxt34Th7sc2LVv7I8t7ccFq2cZnt2LWDAVoAhArBHgAAcOaunGudxnayqydcbV2qd3HPzGtXqZ03N9x4oDqAMCLYAwAA9uTXT7ps3s7dO12Tzbua3GV5cubx5oafgj09TF0PVQeAsCDYAwAgG/v898/t9FdPt5dnvmz9zuhnozuMtpNKnuTNzT547AKAMCLYAwAgG9q4baP1mdjHmg9rbjVK1HDZvK41unpzsx89UL1UIYI9AOFCsAcAQDYz4ocR1mRoE5u5bKZNumSSPX7a41YkXxFvbvbEYxcAhBHBHgAA2cTUpVPtvNHn2R2T7rDLal1mH3b50JqVbebNzd547AKAMCLYAwAg5JZtWma9Pu5lDYc0dAHNlEun2HV1r/PmQhTskdkDEDYEewAAhNjAaQOtwcsNbN6qea7J5tNnPm3HHn6sNxei5+vpOXv02QMQNgR7AACE0IRfJ1iL4S3smW+fsb6N+9qEThNospmA/4w9MnsAwoZgDwCAENGD0buP725tRraxOiXr2FeXfWVXnHSFNxfxaHAWoc8egLAh2AMAIAS27NhiD3z5gOuXt27bOtcv77HTHrNi+YvtWQAJrdy80oodRjkBCB+CPQAAsrhXf3jV9csbPXe09T+jv711wVvWoFQDby6Ss2rrKoJiAKFEsAcAQBY1ZckUa/9Ge7vinSusTcU2Lpt3Sc1LvLlIKWX2iuYv6v0FAOFBsAcAQBbzx4Y/rOdHPa3xK43tkFyHuH55DzR/wAodWshbAqmxcstKMnsAQolgDwCALESja6pf3peLv7SR5420UeePstola3tzkRb02QMQVgR7AABkAe/88o41HdrU7pp0l11+0uX2VfevrGPVjt5c7A8yewDCimAPAIBMbM6KOdbt7W52zqhzrEyhMjal+xS7q8lddmjuQ70lsL9WbVlFZg9AKBHsAQCQCa3ftt7u++I+N8rm/DXzbewFY214++FW7ahq3hJIL2T2AIQVwR4AAJnM4BmDrf7L9e25755zWTyNsnlu5XO9uUhvjMYJIKwI9gAAyCTenf+utRze0nq818NOPe5U+/qyr+3WhrdazhxcrjPK2q1rbefunTTjBBBKXD0AADjIpv813bq81cXajmxrRxx6hOuX98xZz1i5I8p5SyCjqAmn0IwTQBgR7AEAcJD8ueFP6/1Jb9dkc9G6RTb6/NH25gVvWsNSDb0lkNHUhFPI7AEII4I9AAAOsN2R3fbU10+5IG/sT2PtydOfdI9S6HBiB28JHCirtq6ywocWtjw583hTACA8CPYAADiARs4Z6YK8Oz67wzpX7+z65d1Q7wZvLg40BmcBEGYEewAAHABfLP7C2o1qZ53e6mSVi1Z2Qd4jLR+x4gWKe0vgYOCxCwDCjGAPAIAMNH/1fLtmwjXWbGgz27pzq73f+X0b2m6o1SxR01sCB5Mye/TXAxBWBHsAAGSAjds32gNfPuCabE5ZOsVebvuyfdTlIzur/FneEsgMyOwBCDOCPQAA0tlL379k9V+qb/2/6W8317/ZNdnsXqu7NxeZyaotq8jsAQgtgj0AANLJhF8n2GmvnmZXvHuFNS3b1AV5dzS+ww7Lc5i3BDIbMnsAwoxgDwCA/TTjrxnWdVxXa/16ayuYt6B90e0Le/bsZ+2EIid4SyCzYjROAGFGsAcAQBr9sPwHN/jKyS+ebL+u+dVGnT/K3rrwLWtSpom3BDI7BmgBEGYEewAApNLPq362Gz+80QV5U5dOtedaPeeabF544oXeEsgKNm3f5EZIpRkngLAi2AMAIIUWrFlgt3x8i508+GT79LdP7YnTn7DvrvjOrqpzlbcEshJl9YTMHoCwItgDACAZi9cvtj4T+7hM3ju/vGP3N7/fBXnX173e8uTK4y2FrGbV1lXu/2T2AIQVwR4AAAn8tfEvu3vS3S6TN+rHUXZ7o9tdkKfHKeTPk99bClnVun/WWd5cedmWAEKLYA8AgBgajl8PRFcmb8jMIXZDvRtckHdbw9us0KGFvKWQ1W3evtkOy8tjMQCEF8EeAAAeZXoenfKoy+QNnDbQLj/pchfk3dnkTobnD6HNO6LBHs9ABBBiBHsAgGxPlf4nv37SZfIe++ox61Stkwvy7mt2n5UsWNJbCmGzadsmgj0AoUawBwDItrbv2m7PfPuMy+Td+/m91q5SOxfkPdzyYStdqLS3FMLKZfZoxgkgxAj2AADZTiT63/PTn3eZvFs/udVOP/50F+Q9ftrjdvyRx3tLIewU7BXIW8D7CwDCh2APAJBt7Ny9016Y/oIL8q57/zprVLqRC/KePvNpq1S0krcUsgs3QAvNOAGEGMEeACD0tu7cagOmDbDag2vb9R9cb3VK1nFB3rNnP2vVilfzlkJ2QzNOAGFHsAcACK0N2zbYU18/5YK8vhP7WvOyzW3GlTPshdYv2EklT/KWQnZFZg9A2BHsAQBCZ9WWVe4RCicNOskemfKItanQxgV5aq5ZvXh1bylkd2T2AIQdwR4AIDSWbVrmHoauTJ6ek9e5emcX5P3v1P9ZhSIVvKWAPZTZY4AWAGFGsAcAyPKWrF9id0+622oPqm3DZg2zq+pcZd/3+N49J49HKCARl9mjGSeAECPYAwBkWQvXLrQ+E/u4TN5bP79lvRv2dkFen0Z97KjDjvKWAuKjGSeAsCPYAwBkOT+v/Nl6fdzL9cn75LdP7P7m97vmmj1P6WmHH3K4txSQNAZoARB2BHsAgCzjh+U/2A0f3OAyed/++a31O6OfTb9iul1d52o7JPch3lJAymzavok+ewBCjWAPAJDpfffnd3b1hKtdkDd35Vx7qe1LNuXSKda9VndvCSD1XGaPZpwAQoxgDwCQab0x9w1r/0Z7q/tSXTcIyxvnv2ETu060TtU6eUsAaccALQDCjmAPAJCpLFq7yD0br8YLNezydy63ovmLugBvQqcJdm7lc72lgP2za/cu+2fnP2T2AIRajkiU928AAA6aiYsm2qgfR9nIOSPt+COPt4uqXmQdq3a0soXLeksA6WfDtg1W6NFCNrPHTKtZoqY3FQDChcweAOCg2bhto734/YvWcnhLO3X4qbZqyyobcs4Qm33VbLu90e0EesgwasIpDNACIMzI7AEADrjZy2fvzeLt2L1jbxavztF1vCWAjLVgzQI7YcAJ9levv6xkgZLeVAAIF4I9AMABM27eOBfgjflpjDUu09g6ntjRBXlH5jvSWwI4MHTDoeYLNW397et5NiOA0KIZJwAgQ/258U978usnrc7gOtbxzY6WP09++6DzB/Zlty/tmpOvIdDDQaHHLgijcQIIMzJ7AIAM8elvn9pbP7/lmmuWKFhibxavQpEK3hLAwTPp90mun+iuu3d5UwAgfAj2AADpRg88f3ve2+41/a/p1uqEVi7A0yt3ztzeUsDBp5sRZ48427bftd2bAgDhQzNOAMB+WbN1jQ2ZOcTajmxrVZ+raqPnjnZB3qyrZtl7nd6zLtW7EOgh09kV2WW5cuby/gKAcCKzBwBIk/d/fd9l8Mb/Mt527t5p7Su1t/aV27tAD8jstP9eMOYC29R3kzcFAMKHYA8AkGIz/565t5nmD8t/sDOOP8MFeO0qtrPiBYp7SwGZ37vz37Uub3Vxo3ECQFgR7AEAkrRs4zKXvXv7l7ftowUf2YlHneiyeArwah9d21sKyFp0w6L7+O625rY13hQACB+CPQBAXH4GTy/LYXsDvHMqneMtAWRdY38ea1e9d5Wt7L3SmwIA4UOwBwBwtu3cZh8t/GjPa8FHtnDtQju13KkuwFNTzaMLHu0tCWR9Gkjohg9usL9v+dubAgDhQ7AHANnYhm0b7OOFH+8N8pauX2qNSjey048/3fXHq3tMXW9JIFxG/jjSbvn4Fvvz5j+9KQAQPgR7AJDNrNqyam/2Tv9fsXmFC+78V7WjqnlLAuH12g+vWd+JfW1JzyXeFAAIH4I9AMgG/tz4597gTv/fsXvHPgHe8Ucc7y0JZA/DZg+zez+/1xbduMibAgDhQ7AHABlo5ZaVtmPXDjv8kMOtQN4C3tQD47e1v+2TwdP3BwO8kgVKeksC2c+QmUPs4ckP24IbFnhTACB8CPYAIJ2pmeT7C963ET+MsD82/GG7I7std87cVu+YetalehdrVraZt2T6Uv+7r//42r5e+rV988c39slvn9ixhx+7T4BX6JBC3tJA9vbi9y/aE1OfsF+u+8WbAgDhQ7AHAOnou7++s14f9XIPH9+0fZM39V/ljihnHap0sLua3mWH5TnMm5o2scHdl4u/tK07t1rD0g1dYNniuBYuwMuTM4/3DgC+F6a/YM98+4z9dO1P3hQACB+CPQBIJ3NWzLFOYzvZjyt+9KbEVzBvQeteq7s9febT3pSU8YO7KUum2OQlk+3L37+0SPQ/ZQrrH1vf6h1bzwV5JQqU8N4BIJFnv3vWBXxzrp7jTQGA8CHYA4B00vHNjvbG3De8v5JW6vBS9lyr56x1hdbelP9av229y9b5r2l/TnPTFdw1LdPUTjn2FBfcHZHvCDcdQMopq6d+e7OumuVNAYDwIdgDgHSgZpSd3+rsBkVJqTPLn2kfdP7AjZQ5b9U89/pl1S97/r/6F1uyfs+Q8H5wp/8re5cvdz43HUDa9fumn3v8wowrZ3hTACB8CPYAIB08O+1Zu+6D67y/UiZ/nvyuSefyzcvd38r2VS9R3SocWcEqFq1oFYtUtCZlmljOHDndfADpR4OzjJ472qZdsSdjDgBhRA0CANLBr2t+9f6Vcho4pVeDXjb3mrm28+6d7uHO7130nj11xlPWo3YPl8kj0AMyxq7ILsuVM5f3FwCEE7UIAEgHerRCahXOV9ial21uVYpVsVw5qHQCB9Ku3dFgj+MOQMgR7AFAOqhVolaqK475c+e34gWKe38BOJDI7AHIDgj2ACAd1CxZ08oXKe/9lTInlTzJ9dMDcHAouwcAYUawBwDp4MRiJ1rbCm0tR/S/lKhQpIJdVecq7y8AB5oGSNqyY4v3FwCEE8EeAKSTnqf0dI9TSE6ZQmXs5lNutkalG3lTABxoeoQJwR6AsCPYA4B0UrJgSRvUepAbcCVfnv8+C0+jb2reY6c9Zj3q9NgzEcBBQWYPQHbAc/YAIB1N+n2StRjWwp48/Ulbs3WNzfp7lm3esdlKFChhpx1/mjUr08zKHVHOWxrAwaJn7F37/rW2svdKbwoAhA/BHgCko/NHn2/58+a34e2Ge1MAZEbv/vKudRzb0Tb33exNAYDwoRknAKSTUT+Osrd+fst61+/tTQGQWemmDM04AYQdwR4ApIPdkd323PTn7NaGt1q14tW8qQAyK/XZEwI+AGFGsAcA6WDAtAG2aO0iu6XBLd4UAJmZRuMUgj0AYUawBwD7admmZfbcd89Z7wa9rWj+ot5UAJmZn9nbunOr+z8AhBHBHgDspwHfDrDChxa2G+rd4E0BkNnRjBNAdkCwBwD7YeaymXv76gHIOmjGCSA7INgDgP0w8LuB1rxsczuv8nneFABZAZk9ANkBwR4ApNGHCz60ITOHuL56ALKWfHnyWY4cOWzLdoI9AOFFsAcAaTRw2kC79uRrrUGpBt4UAFmJmnIyQAuAMCPYA4A0GDprqE1ZMsV6NejlTQGQ1agpJ804AYQZwR4ApNI/O//ZOyjLcYWP86YCyGoI9gCEHcEeAKRS/2/72+btm63nKT29KQCyIoI9AGFHsAcAqbB4/eK9D1DXAA8Asi712SPYAxBmBHtACH388cd28skn2wMPPGDbt2/3pibt+++/d+9555133N///POP3XXXXW7aLbfcYlu2xK8QrV271rp3777Pe32LFi2yG264wdasWeNN+VdS8/zv/u6777wp/0rrPBk4cKC9/fbb3l/7Sum8/t/0twpFKli3mt3c3yq3vn372tat/x3kIal5iST1nrSUp7b/vffe67ZP7Eu/K2jZsmX20EMPWcuWLa1hw4Z222232bx58ywSiXhL7JHS5YK0Ho888ojbPtpOQbt27bIJEybYeeed59ara9eu9tlnn9nu3bu9Jf5L+6N+V+w+50vv7YJwIrMHIOxyRS+W93r/BhACqlS/8cYbtm3bNvv999/tlFNOsSJFinhzE1MF/r333rOmTZtaxYoVbefOnTZ58mRbsGCBbdy40VXqixYt6i39r59//tmGDRvmKub+e/We//3vf3b44Ye7IETDmw8aNMiOP/54FxwmmpcvXz57/PHHbfXq1bZ+/Xr3+QqyVq5caWXLlk3TPK2PPn/OnDmWK1cuN//bb791AWHNmjVt8ODBKZ437tNxNvrj0fZQl4ds9a+r7YUXXrAjjzzSli5d6uYPHTrUatWq5d6TaN5hhx3m1i/WN998k/A92jZpKU9td2077Q8qh9NPP91OOumkva8qVaq4spMlS5ZYr169bP78+dapUye78MIL7Y8//rAXX3zRKlWqZMccc0yqlgtSEPjBBx/YSy+9ZOXKlbMmTZpY7ty5984bPny49e/f31q3bu0CPf32IUOGWIkSJaxChQpuuaDNmzfbc88957axv8/5kirHtGwXhNu4eeMsZ46c1rpCa28KAIQLwR4QMr/99pureF988cWuYp4zZ04XuCgISEqiYC9PnjyuQq7AoWrVqnsW9mj6uHHjXEAhdevWde8tVKiQCwzfffdd++KLL+zQQw+1jh07WuXKle2II45IOC9v3rwuSFHmRRmbv//+2wUoyiDlz58/TfP0+QowFi9e7IIelY/W85xzzrGCBQumat5fh/9lFRtWtNua32bFihVz3/v666/btGnTrGTJktalSxcX7Bx11FEJ5yXaDkl9XuHChdNUntr2f/31l40dO9auu+46a9u2rdWpU2fvyw/0tB3feust+/HHH+2ZZ56xFi1aWOnSpa1x48Yu+/Xhhx+6f2v7pGS5Qw45xH2uT2XXr18/934FcMFg788//3SBnrLDl156qVsnfYayfx999JE1atRobyCmGwr67vvvv98mTpzopsUGe+m9XRBun//+uf29+W+7qOpF3hQACBeacQIhM2PGDCtQoIDVq1fPZW8+//xzW7VqlTc39UqVKmX169e36dOn/6cppz5XWTAFEcEKvjJhqkCrwn7WWWe5YFBBgaYnNU8VblXWFaRo/TVNFXT9nrTOEwVEChjKly/vllMWTNmd1MzLVSCXTV8z3W5peYubp99bvHhxF7QoOFFGVb9L65DUvESSek9SZZbUPFG2U58RLyvrUxZYWUGVnd7r02c0a9bMZYgVsKV0uSDtI4899pjLAp522mne1H/98ssvtmPHDhdk+wGXPk9BnAJBZeB8CrzvuOOOvZ8Ze/NB0nu7INxKFixpyzYu8/4CgPDhCgeEyIYNG+zLL7+0GjVq7M2g/PrrrzZz5kxvidRTRVgVbzXbC1a8Rc01VXGO19RO36tgU5VzNRdUkOBLap76nKl53a233mpXXnml/fTTTy4Y2J95mzZtckHITTfdZL1793b/VlPA1MxbV3udNT28qZUvWN7NUz8zNWFVoKt+aGqCqoxicvMSSe49aS1PBUwK9PTZF110kQvcr7/+elc+yugFKRiKF/ho3ZQl9qV0Of2trKIyaAr04mXPtO7KGiuwDlJQpn04+HkKAlu1auWag6rpZTxJlWNyZYzsp2SBaLC3iWAPQIhFL/YAQmLGjBmRU045JTJ58mT3dzQAilx66aWR+++/P7Jt2zY3LRG9t06dOpHx48e7v7du3Rq588473StaIY5cffXVkZEjR7p5snPnzki/fv0iAwcOjEQDokibNm32vjdsBk0fFCndr3Rk+abl3pSsQdvo8ccfd9s1GrBGJk2aFPnggw8i3bp1i7Ro0SIybdq0vctpW15wwQWRxYsXu2mye/fuyKhRo/buFyldzvfJJ59EogFmZOnSpe7vAQMGuP1J+5ZP0/r06RPZsmWLN2WPtWvXuvXU/Hj8+WHd53BgjPt5XCT3/bm9vwAgfMjsASGhrIWyeieccMLePkzq66U+T19//bVrApdWatqoPl7BppzKpKn/lJrDhdmGbRts4HcD7ZYGt9hRhx3lTc0a1ExRTS818IlGz1RTyzPPPNP1kVNm7JVXXnHZYGXMlO1SP01lMdUvb8qUKa5vnEbFVGZOUrqcKCOqz+/Zs6cde+yx3tR9qQ+e1k+fGy/rB2Q0NePcuXunrdyy0psCAOFCsAeEhAZY0YAqas7n9zlTBVpBmpolal4kptleSvmfE2zKqb5WGnDDH+QjrPQA9cPyHGbX173em5J1qJmimnbec889bmASn4J3NfFduHCh229Eg9Fo0BUN7PLkk0/agw8+aGXKlLE+ffq4wWp8KVlOzV+ff/559x3aHxPx+9HpRkVa901gf6gZp9BvD0BYEewBIaE+WOrfNGLECPe4Bf9ZapdddpnLxu3vQC0K6pShUf8/Vc41xL0CwGAgEDbzV8+3gdMG2s2n3OxN2X96tp2/bfyXRhHNKMqeaXvFUhZO2Vm/f6JosBJlAL/66is3sma3bt1c5k37jX8DQZJbTjcFtL+pb11wX9QjOvwRO/1n/KnPpwJOvT9I/S2VmUyUFQTSgzJ7Qr89AGFFsAeEgIK5Tz/91I0aqefNPfvss/u8VBnXwBT+QC2qdN98881u5MZYwUp9kII6BXcKTJTdmzt3rvs7zM3vlNVrXKaxdTixgzcla9FALe3atbMxY8Z4U/6lrJ4CKX+Uztdee809lD12n1AGV9k3BXiSkuWOO+64/+yDeulxGNpn9BgGjRwqanasEUP1vMCg5cuXu+f3+d8LZIQ8OfNYkXxFyOwBCC2CPSAEFHzNnj3bjXiokTM1jH3wpefGaah8BYQKDPUcvHnz5rmRGkVN6DQqopr6qZ9fPH5TTi2n55/pkQSq1IfV5CWT7bnvnrOb6t3kTUkfet6dHlcRfCXV1HF/aERLPeh80qRJ+2R19bB57Qv6Xo14Kcrcah8KjuSp90yYMMFl5fygKyXLaWTN2H1QL2UTFVxqP9JzEUX9S/UsRz33zm/KqUyknhmo5qFhbyaMg0/Zvb83MSorgHAi2AOyOFWQ1ZxOg1yoeVy8TJsq2Zr37bffuscl6CHr6s91yy232FNPPWV3332364elCnlSlWvN02epeV7t2rVD3YRTWb3r6l5njUo38qZkPQreO3To4LZ537593SAqakapwVWUSevcubPrdynVq1d3r3vvvdfef/99t5weRaFALi3LpZT2J2X5nn76aTdwjAYZUj/AUaNGuXVP6vmAQHrg8QsAwoxgD8jiVMlW/yg9P02ZkHgUCLZo0cL9WyNqajlVqJWZUxO/qVOn2nnnnecG2fAfRB6P35RTQYSyOGE1Zu4Ym7Rokt10Svpm9Q4Gba8BAwa4JpYarEXNfPUsPvWZ02ArPg3act9991nDhg1df7wHHnjAjj76aHcTIC3LpZT2za5du7p10yBCvXr1ck1M9R16pl6Ymwkjc+DB6gDCLEeEIdAAYB+NX2lsZ5Y/0+5ofIc3BUBY3f7p7fbV0q9s8qWTvSkAEB5k9gAgQKNvrvtnXbr31QOQOZUoUILMHoDQItgDAM+qLavsmWnPWM9TetpheQ/zpgIIMzdAy2YGaAEQTgR7AOB5+pun7bjCx1n3Wt29KQDCTgO0bN6+2TZs2+BNAYDwINgDgKgfV/xoA6YNCMWgLABSjgerAwgzgj0AiNKjFtpVamdnld/zsG8A2YMye0K/PQBhRLAHINubuGiiDZ89nEFZgGyoQN4CVix/Mftl9S/eFAAID4I9ANme+uppUJZaJWt5UwBkJycedaL9sopgD0D4EOwByNZGzBnh+uvRVw/IvqoUq0JmD0AoEewByLZ27d5l/b/p7wI9PWsLQPZ0YrETbd6qed5fABAeBHsAsi0NypIrZy67sd6N3hQA2ZEye7+t/c127NrhTQGAcCDYA5At/bXxL9dXj+abANRnT2jKCSBsCPYAZEsK9OocXccuPPFCbwqA7EqjcTIiJ4AwItgDkO18v+x714STrB4An7J79NsDEDYEewCyncenPm5XnHSFNSnTxJsCILtzI3Ly+AUAIUOwByBbGTlnpE1ePNl6N+ztTQGAPSNy0owTQNgQ7AHINrbs2GKPf/24C/TKFCrjTQUAnrUHIJwI9gBkG4999ZgVOqQQj1oA8B/qs7f+n/W2bOMybwoAZH0EewCyBQ3K8tjUx+yW+rd4UwDgX4zICSCMCPYAZAvK6nWu1tlaVWjlTQGAfSm7R7AHIEwI9gCE3utzXreJiyZa7wYMygIgMUbkBBA2BHsAQm3zjs3uUQsK9CoUqeBNBYD/YkROAGFDsAcg1NR8M1/ufHZLA/rqAUiaMntTl071/gKArI9gD0BozVg2wwV7CvRy5uB0ByBpjUo3snX/rLNZf8/ypgBA1kbtB0BoKdDrUKWDnVv5XG8KACSWO2dua1iqoX3+++feFADI2gj2AITSiDkj7INfP3APUAeAlGpSpol9sfgL7y8AyNoI9gCEzqbtm1xWT4FetaOqeVMBIHmNSzcmswcgNAj2AISOAj01x+IB6gBSq+6xdV2/vWl/TvOmAEDWRbAHIFSm/zXdHpu6Z1CWfHnyeVMBIGWK5CtitY+uzaicAEKBYA9AqCird07Fc+yiqhd5UwAgddSUk357AMKAYA9AaLz2w2s2/pfx7gHqAJBW9Y6p5/rt7dq9y5sCAFkTwR6AUNi4feOeQVmigV6do+t4UwEg9eoes6ff3tQ/aMoJIGsj2AMQCgr0dkf/U189ANgf5Y4oZ1WKVbGvlnzlTQGArIlgD0CW991f37lgT6NvFj60sDcVANKu/rH1GaQFQJZHsAcgy1Ogd1b5s6xbzW7eFADYPycfc7JNXjLZNm/f7E0BgKyHYA9AlvbqD6/amz+96R6gDgDphX57AMKAYA9AlrVh24Y9zTcb3GINSzX0pgLA/qtVopaVLlSafnsAsjSCPQBZlgK9rTu2ur56AJDempZpau//+r73FwBkPQR7ALKkaX9Os8emPuaabxYvUNybCgDpp02FNm4AKAZqAZBVEewByJKU1Wt5XEvrUbuHNwUA0lfbSm2tbOGyZPcAZFkEewCynOGzh9vYn8e6B6gDQEY5JNchLrtHsAcgqyLYA5ClrN+23mX1rqt7nbU4roU3FQAyRtuKbW3m3zPty8VfelMAIOsg2AOQpSjQU8BHVg/AgXBquVOtZomaZPcAZEkEewCyjG///NYFewr0NCQ6ABwINOUEkFUR7AHIMhToNS7d2G6od4M3BQAynppyzlkxxz5b9Jk3BQCyBoI9AFnCsNnD7K2f33IPUAeAA6nO0XWsWdlmZPcAZDkEewAyvbVb17qs3hUnXWFnn3C2NxUADhxl9wj2AGQ1BHsAMr3Hpz5uKzevdA9QB4CDQf325q+ebx8v/NibAgCZH8EegEztmz++scemPuYCvROOPMGbCgAHVvkjy7uHrJPdA5CVEOwByNTUfLPeMfXslvr01QNwcDEqJ4CshmAPQKY1dNZQGzdvnAv0cuTI4U0FgIND/fY2bt9oQ2YO8aYAQOZGsAcgU1qzdY3L6nWt0dXaV27vTQWAg6dIviJ2ac1L7eWZL3tTACBzI9gDkClpUJY/N/7pHqAOAJnFpbUutdl/z7aRP470pgBA5kWwByDT+fqPr11WT4Fe1aOqelMB4ODTQFEK+F7+nuwegMyPYA9ApqNAr1bJWjxAHUCm1K1GN5u4aKKN+3mcNwUAMieCPQCZyiuzXrG3573tBmU5NPeh3lQAyDxqH13bLql5iQ2ZxUAtADI3gj0AmcbqLatdVu/CEy+0jlU7elMBIPNRdu+9+e/Zhws+9KYAQOZDsAcg09CgLIvWLnIPUAeAzKxZ2WbWvlJ7HsMAIFMj2AOQKUxdOtUem/qYC/Rql6ztTQWAzEsDtYz5aYx98fsX3hQAyFxyRKK8fwPAQdNuVDtbuHahTbl0ihU6tJA3FQAyt9NePc2OLni0DWs3zJsCAJkHmT0AB52aQY3/ZbwbfZNAD0BWooesD5893Kb9Oc2bAgCZB5k9AAfVqi2rrNGQRla5WGUbdyHDmAPIek556RSrUqyKDTmH/nsAMhcyewAOqkemPGK/rP7FPUAdALKiq+pc5R4bo/57AJCZkNkDcNB8vPBjO+O1M+yOxnfYgy0e9KYCQNbT5a0u9tOqn+zLbl9agbwFvKkAcHAR7AE4aJoObWpbdmyxLy/90vLlzudNBYCsZ/7q+e6cpj58D7d82JsKAAcXzTgBHBQPT37Yvlz8pcvqEegByOoqFKlgdzW5yzVNn7x4sjcVAA4uMnsADrjpf013d8AvqXGJPdfqOW8qAGR9540+z7bu2Grvd37fmwIABw+ZPQAH3EOTH7ISBUrYHU3u8KYAQDgou/fV0q9swLQB3hQAOHgI9gAcUC9Mf8Henve2a755TMFjvKkAEA41S9S0u5ve7ZqqL1izwJsKAAcHzTgBHDCL1i2yJq80sYalGtqo80d5UwEgfM4acZaVLFCSZ+8BOKjI7AE4YB788kHbtH0TzTcBhJ6ac7425zWevQfgoCLYA3BAjJ472obMHOKab1Y7qpo3FQDCqUGpBi7gu+/z+9xjGQDgYKAZJ4AMt3nHZmvwcgMrXqC4fdzlY28qAIRfm5FtbMXmFfZ+p/etSP4i3lQAODDI7AHIcPd+fq/9sPwHl9UDgOzkxTYv2s7dO+38Med7UwDgwCHYA5ChPv3tU3ti6hPWp1Efa1qmqTcVALIHPWZGg7TMWzXPWr/e2psKAAcGzTgBZKjmw5rbhm0bbGLXiVb40MLeVADIXj5a8JGdOeJM61Clg43uMNqbCgAZi8wegAzz6JRH7fPfP3fNNwn0AGRnZ5Q/w4a1G+ZG5+w+vrs3FQAyFsEegAyhPnoPTX7IetTuYedWPtebCgDZV9caXe1/p/7PXpn1ij3w5QPeVADIODTjBJAhzht9nn2/7HvXfLPcEeW8qQCAXh/3sqe+fsqGtxtuF9e42JsKAOmPzB6AdDd4xmB76+e3XPNNAj0A2NeTpz9pnap1sq5vd7VPfvvEmwoA6Y/MHoB09femv63eS/Ws3rH1bPT5DEIAAImc+uqpNvG3ifb0mU/bjfVu9KYCQPohswcgXd016S5b9886u7XBrd4UAEA8n178qfVu0Ntu+vAm6/FeD28qAKQfMnsA0s24eePs3DfOdQMQ3NqQYA8AUuKdX96xc0adY43LNLa3L3zbjsx3pDcHAPYPwR6AdLE7sttqD65tRfIXsQ86f2B5cubx5gAAkqMRjBsNaWR5c+e1dy961+ofW9+bAwBpRzNOAOmiz8Q+NuvvWa75JoEeAKRO9eLVbdFNi6zu0XWtwcsNbOisod4cAEg7MnsA9ttXS79yd6Rva3ibPXrqo95UAEBaqA9f/2/7W59Gfezhlg97U/c1delUe2/+ezZj2QzbsmOLFctfzFqUa2GnHneqVSpayVsKQHZHsAdgv7Uc3tLWbF1jH3b50IofVtybCgBIq8enPm63fnKrta3Y1nqe0tOalW3mpi/btMwe/PJB+3DBh/bb2t/ctKDKxSpbr/q97LJal3lTAGRnue6N8v4NAKn2+FeP2+DvB1u/M/rZKcee4k0FAOyPhqUaWoUiFeyd+e+4wG/llpVW6vBS1vOjnjZizghb+89ab8l9rdqyyqb/Nd127N5hjUo38qYCyK7I7AFIs1/X/Gp1BtexC0+80Aa3GexNBQCkl43bN9qTU5+0ft/0s527d9q2Xdts1+5d3tzEjj/yeHuh1Qt2arlTvSkAsiMGaAGQZn0n9rXChxa2nvV7elMAAOmpYN6Cdm+ze210h9GWN1feFAV6snDNQnvm22e8vwBkVwR7ANJk2Kxh9uZPb7pBWSoXrexNBQBkhM3bN9v2Xdu9v1Jm/ur59uvqX72/AGRHBHsAUm39tvV27xf32nlVzrNrTr7GmwoAyChzVsxxo26mhpqALt+83PsLQHZEsAcg1W775DY3CIBGiAMAZLy0DLGwO7LbItH/AGRfBHsAUuWDXz+wQTMGueabGi0OAJDxKhWrZLly5PL+Shn19yuSr4j3F4DsiGAPQKrcOelOa35cc7ux3o3eFABARqtStIqVO7Kc91fKlCxY0qoUq+L9BSA7ItgDkGJ3T7rbvl/2vWu+WfCQgt5UAEBGq168ujUrs+fB6ilxdMGjuSkHgGAPQMrM+GuGPfDlAy7Qa1OhjTcVAHCg3NrwVqt7TF3vr8Ty58lv51Q8x9pXau9NAZBd8VB1ACly2qun2YrNK+ydju9YmcJlvKkAgAPph+U/2K2f3Grf/fWdrdm6xpv6r3JHlHNB3l1N7rJChxbypgLIrgj2ACRr4LSBdv0H19vQdkPtkhqXeFMBAAfDhm0b7OOFH9urP7xqC9YscNNy58xt9Y6tZxdVvcial23upgEAwR6AJC1dv9Sqv1DdNQlSsAcAyDzW/bPOtu7Y6rJ4ar4JAEH02QOQpNsn3m4F8hawm065yZsCAMgsCh9a2I26SaAHIB6CPQAJjZ472l6f87rdXP9mq1mipjcVAAAAWQHNOAHEtW3nNqvyXBU7sdiJ9nbHty1nDu4NAQAAZCXU3gDYihVmCxeaLV1qtnv3nmlqvvn3pr9d800CPQAAgKyHzB6QjY0da/bKK2a//Wa2a5dZ7txmRxxhVrHe7zYkZ3278+zL7YHmD3hLAwAAICsh2AOyoeXLza6/3mzmTLMFe0bt3kfeI/+2vIXW2Cv9j7Xz2xzuTQUAAEBWQrAHZDP//GPWpYvZ5Ml7mm8mpUoVszfeMKta1ZsAAACALIOOOEA207+/2fffJx/oyZ9/mt1zj/cHAAAAshSCPSCbGTfObNEi749krF9v9uOPZjNmeBMAAACQZRDsAdnInDlmGzZ4f6TQH3+YTZrk/QEAAIAsg2APyEbWrk19sLdli9mqVd4fAAAAyDII9oBsJFeu6EGfhqM+Tx7vHwAAAMgyCPaAbKRkSbPDU/kkheLFzcqW9f4AAABAlkGwB2Qj5cqZlS/v/ZFChxX6x5o39/4AcFBt2LDBrrnmGmvatKn98MMP3tT49GSlefPm2QMPPGBnnnmmnXzyye7/Dz/8sP2poXYDFi1aZG3btnXLjBo1ypv6X99//73Vr1/fLav3yD///GN33XWXe2/s65xzzrFnn33WViQx/O/WrVvt3Xffte7du7vP1kv/HjNmjJsXj777hhtusDVr1nhT/pXUPH9dv/vuO2/Kv9I6TwYOHGhvv/2299e+0jpPZd23b9+4ZZDWeWktt7SWaSIZUdbbtm2zkSNHWuvWrd2+17VrV5s6dart3r3bW2IPHRf67Kuvvtrtay1btrSnnnoq7m8L+vTTT619+/auLGItW7bMHnroIfdZ+szrr7/efvrpJ/ddovf4x1e8V/B4Ctq1a5cNGjTI/eZ49qcckX3kujfK+zeAbCBfPotWEs1WrvQmJCFv0T9sZ4UxVrrBt1b3mLreVAAHyy+//GJvvvmm5c+f3/2timLOOG2zt2/fbq+88orpEl+oUCG79NJL7dxzz7VSpUq5SqsCuipVqtgxxxzjll+3bp19+OGHtmnTJsubN681atTI8sS031bFddy4cS6YKFiwoJ111ll2xBFH2M6dO23y5Mm2fv169x1169a1k046yWrWrOnW4+OPP7YvvvjCTjzxRDvqqKO8T9tj8eLFdsstt9g777zjAlit5+mnn247duxwFXe9V59TpEgRt/yCBQvsf//7nx1++OGucpwjRw5XGT7++ONt7dq1Cefli574Hn/8cVu9erVbT1HAsDJ6Iixbtmya5lWsWNF9/pw5cyxXrlxu/rfffusq11rnwYMHp3pe7dq1bdq0afbCCy/YkUceaUuXLnXzhw4darVq1XLvScs8BSNpKbe0lqn2rXi2bNmS7mWtMtO+OWTIEHv11VetY8eO1qlTJ7dPq5y1z1WoUMGtu5Z777337O6777bq1atbjx49rHLlyjZ+/HibOXOm2+8POeQQ991Bv/32m7tJon3d3+99mtezZ0/bvHmzXXnlle6Gys8//2zDhw93x0Hx4sXd+3Lnzm01atRw0/xXpUqV3I0X/fazzz7blalPx46OgZdeesmtq44rX1rLMdF2QbgR7AHZTPTaYhs37nmGXlIDr6hudXrTw+2s6z+1Pp/3soVrF1r5I8tb8QLFvSUAHEi6y//GG2+4ymjjxo1d0KbKqSriQarQTpgwwQYMGGC333673XjjjVa+fHkX2FWrVs1VRhU0ffDBBy4Loff7wZ7mK6DU9KJFi3qfuIeWUQVWlVdVNmODPWVQbrvtNrdOderUcYGoKrBNmjRx66oKsD7Xr9Aqk6Kso9ZXmQutV+nSpd1Ly5122mkuMzNx4kRr2LChFShQwAWuWi9lAhVAHnrooa5yrwq71iXRPAWwClAUqCqw/Pvvv11QqUyMAue0zNPnlytXzgWs2i6q9KtCrmymguG0zDvssMOsWLFi7ntff/11F/iVLFnSunTp4rafApe0zCtcuHCayi2tZap58SjgSe+yVpkpi6agVEGX1k/7kI4R7bNTpkyx5s2bu+NmVfSi169fP5f9u+mmm1xgpABINyIUGCsY0w2RIO3r/fv3d4FvbLCnY1IBppZ59NFHXVCmz9QxMGvWLPf99erVc/uugnwdF/5LQaoy3jouVBU/+uij3WfqePjjjz/skUcesdGjR7vjSu8NBntpLcdE2wXhRjNOIBuK1v/syistepGz6EXRm+hRPaxqVYteMM1eesnsoTNvt1lXzbJZf8+y80afZ89Pf95bEsCBpOBImQxVTFWRVTO9b775xpv7L1Vox44d6wItVUxjM38KmBQEKOhSxidIlcoSJUq4LEcsNQkVBV6pccIJJ7gMitY9+LmfffaZCywVjMZWsEWVX83TOiowVSVYWR0FL2qipt+2ceNGV7HX9KTmKaujIEplocq3pik4UiU8rfNElX4FGwqmtZwCZ2XW9meeghIF1KrQazsrw6PfpXVI67ykyiat85Irm3gyqqwV0Cj7pyDKp/drvgIyvymnmj7rb2WgNd+nIE3BrG4yBPnBnKhpZqzly5e7GxIXX3yxC4p9WrfnnnvObr75Zvd74tG+r2ylmpsed9xx3lQ933a9yzwqi3nnnXe6QC3W/pQjsh+CPSCb6tnTohWoPYHf5ZebtWljdsEFZvfcYzZ8uPpF6OK6Z9kaxWvYnKvn2LmVz7VrJlxj3cZ3s3mr9lT8ABwYCpR0x18ZMwVHygwoYFI/viBVIpUtUDYj0Z18VW6VydBnBanCqqzE9OnTXbbCp0qvms2pSWCwUptSep+a0v34448uaNNnK1DVdGUhElGg2KBBA7c+amIqv/76q2sCd8cdd7isjJoX+pKap2BZFelbb73VNbdTNkjNRfdnntZJWSZliXr37u3+reZ8+zNPZa3tp35c6nOloFzBzP7Mk7SWW1rLNJGMKOtTTz3VNdn0s2N6j7LNanasmxPKporKRxlCfdaDDz7o5imjrGMhUf/HL7/80i677DIXaMZS+SoQVjNjv7+gPlNlFdsvNkjvGTFihNv3dZwqQPMpSFOG8eWXX7YzzjgjYbCY1nJENhQ96QJAik1dMjVS5dkqkYoDK0YGTR/kTQWQkaIV0cidd94Z6dWrVyRawXXTxo8fH2nSpElk9uzZ7m9ftIIbadWqVWThwoXelORFK86RNm3auM/U5+nf8+bN8+ZGIitWrIhccsklkRkzZrhlNF/vEX/dunXrFlm7dq2bFisakEauvfZat5yWX716deTiiy+ODBgwwFsiMS3Trl27yOLFi70pQGLaP+vUqeNejz32WGTLli1u+rZt2yL33HOP23d1fPTr1y8yderUyAsvvBBp0KBB5N5773X7pm/p0qWRiy66KPLJJ5+4v7XvB/d7mTBhgjsGO3ToELnuuusikyZNctPat28fOffccyPRwNhbcl/63kaNGkWiAak3JT7/2ErJcQIkQmYPQKrUL1Xf5l4z104rd5r1eK+HdR/f3X5b+5s3F0BG0IAb0cqmnXLKKa5PjijboiybsnvK6viU/VM2IJgtSA31OTr22GP3aXKpPn5qBqYmdGmhwV78fk6irIP6M6WEmg3q9wV/I5BImTJl7JlnnrHLL7/c9UNVXz5lktWUU/uQmgVfccUVromwmm0q8xUNAl2/Un+f1/IaGEWDBinzloj68GlZZaD1Pc2aNXPNp59++mnXnFYDo8Tut2peq+9Sk2ll2IGMRrAHIE0GnDXAJnadaN/8+Y21fr21DZ011JsDID1FIhHXJE3UvMunfjiqMGpesO+dgiNVbPW+tFCTN/V98ptyqrL61VdfueDSbw6XWqrgBtdRgWNKP+uvv/5y/Y6CfayARHSMKIhTP9H77rvPPvroIzdIi0/949R82b8Zov9rf9f02bNnu+NGA9Jofz3vvPNStN+1aNFi700YUTNrNT9Ws2W/qalPg8x8/fXXLpBU3z4goxHsAUizFse1sJ+u+cmalm1ql46/1K549wr7Y8Mf3lwA6UGDYijw0tDpGlJeFVW91DfonXfesSVLluwzUIuychp2XUFSIvosPa9Pj3HwB6/w+ZXf+fPnu4yi+v/MnTvXTUtrtlB9pNS3UIO/aCAR9X/SaJG///67CygTUd8m9X3SICHBzCAyN/Xri32unPoRanseSOpjqKyb9mVllzU4kfa9YGAmyoQrqFOmTllnZQTVX0+D0vjrr+BRAeAFF1zgHhGizHRwwJ0gHSf6PN0oiT2+FFAq66c+t8CBQLAHYL893+p5e/eid23y4sl21oiz7PU5r3tzAOwvBVpqXtatWzfTA8qDLz1PS00rgwO1KKugCu6kSZNcRi0eDeKiz1RmId4AEH5TTo0IqGU12IempZUyHAoclR1URViVbTVJ1Qid+n2JKBhU81W9j9EEkYgGWNFombGDFSnY0kvBlYIv/0aIHqMQpMFLdKyoWbT2TTXxjD3W9FgHBXcKWjVfy2nUS01T0+kgfac/cEtwkCR9h44FZR91swM4EAj2AKSL1hVa27zr5lmDUg2s81ud7eoJV9uKzSu8uQDSwm9CqVEG9UwxPWsr+FJTMD2PToGbHzSpwtqqVSt7//333SMLYjMLyvj5D9tWti4evymnhpVXMzhlNtLa5EyjOWqIeX2eHhvhU9M3/a2KtEZWjKX1fOKJJ1xlWr8nrVlFHHhqEqmss4J5/6VnKup5eRlBNziU/dajFXxqjqmMtzLffvNnZdOUvdPD+nVsiZbTfq6ATZlABWf+c+2CLz0AXVlpPYtS87Wcvlefreda6pEnPt2k0Cie+jzdKPH5I4pqRNCMKgsgFg9VB5Cu2lRoY1WKVbEhM4fYqB9HWdH8Rd3fAFJPAc+LL77onpumhyLHZuEUACnj9fnnn7vshPoqKYuhyqSaR+pZX8okqAmbHuCsAFADSaiiG3yQs5qkqemaMmh6XpnfDE3Dv6uPkQa0UB9BUabPb+Km5mv+Q9UV1Kkyq2Zqysapgj9kyBB7/vnnXfCoZ4epGadPleCqVau6dddgGFoHBaaqnKt5qdZTv+X+++93/RCBRLRf6Zl3eqC8jgNl1TQ4ygsvvOCegdemTRt37Ojh8joudLNDx5b2L+33Ok707Ek9hiFeplvUhFP7qr/fi44rfaYefq4H2SuAU5NR7bt65qGaSgcf2aDPeOutt9z36BhNjn9s6RhXwAmkBcEegHR34lEnWo/aPWz28tl2+8Tbbe0/a63+sfXt0NzcyQRSQxkIVTCvvfbahM2+FEgpIJs1a5Y1adLEZeBUCVUzSWUdFOzpeWOq/Oq5YOpLdfvtt+8N9CQ22BMFY8qUqCKtgSqU1ZBEwZ6W1Uvz9FK2URXd888/3z3vK/h9PlWU9SwxzVMmRJX1Tz75xGVb1C9KD6VWpRlIivZ3PUBcNyneeOMNF1CpyaSadrZv397NFwVyymhrxE49RP21115zGTndzOjYsePe5eKJF+yJ+pPqJouCPH2ebnLoOLzllltcM88g9WUcNWqUdejQIUXNOAn2kB5yRE+oaRuuCwBSYMScEXbv5/fa4Yccbvc0vcfaVmzrzQEAAEBGos8egAzVuVpn++6K76xWiVp2zqhzrPcnvW3LjsSj7wEAACB9kNkDcMC89sNrdu8X91qRfEXsvmb32Znlz/TmAAAAIL2R2QNwwHSp3sUmXzrZqh5V1T2i4Y7P7rCdu3d6cwEAAJCeyOwBOCiGzx7u+vIdc/gxLsunB7QDAAAg/ZDZA3BQdK3R1SZdMsnKH1neWg5v6QK/bbu2eXMBAACwvw5IZm/r1q1uKFwN/aznmhQpUsQNcXvhhRfu87DJIA2Z++STT7rnodxxxx17Hz6p4Zx79Ojh/h2PntnTr18/N5yz/Pzzz+75KXrYZqFChdzw0Z06ddrnuSf6rocfftg9FDPWJZdcYtddd537t4pKn6PnBmmIa32ehvTVELp66GuQnmV0zz33eH/9K3b9tm3b5obhHTlypK1fv949qFO/T8NlJ/cAWQ2V3bNnTzesdiw9O6Zy5cqujJs3b+4e/ilJvcen4YD79+/vHorq0/OZxowZ44YB1zbU52mI7s6dO7vhgP3n0gwcONCGDRvm/p2Uu+66yw3/LSp/PZNGD2B96KGH7PTTT3fTY+mz9eymYPkF+fuGHt6rdRN9ph7kGo/2Qw2PrG2soZPj0TDiGrpZD/599NFH4z5U2P/e1q1b22233fafB6XqeT/6XaJ9WcM333jjje7/SfH3FUnLNotH+7CGTde21IOaV69enaJyEG17rb+2m36nv0/5/N+ph9M+/vjje7dBUOw2Smr7BPnHYbxtnNry13wNf61tcPnll+/dD4PivcenMtRDcXVO01Dxfhk2bNjQnQv8Z5Qlxf/+2H3AP27PPfdc96Bsf6j7WDqO3333XffAbD3bzD8e9Vv0kO3YbZPIxo0b3XD8/uckOm/ESs1xEUvL6pyhYfUrVKjgTf2XnrOm57T5z63asGGDG5a/WbNmdsEFF/xnH03LeTCepLa5pOTcKf6xKPuzjSW5Yw4AgORk+HP2FKw99thj7vk9etZOt27d3INZ9SySpUuXuot+7HNNVJlS5UMPWdVDJ1UR1QVSFBiosqCKTfBVtmxZV4HSv1Up0PJz5syxG264wV189YwiVRJUydX36vlD/meqwqOKmyppCjSCn1ulShX32aLf0LdvXxfk6fP0GR999JF77oqesZI/f363nGi6Pvecc86xOnXq7PN5qiDpN+u3PPXUU/bee++5yojKZ+HChfbqq69atWrVkn0Giyon+h4FiHoWUatWrfa+GjRo4Mpj+PDhLqD2g0f/PXpukh4yGvyt/kvfrUDDD4hVsVWlRc9MOvnkk135li9f3n766Sf34Ft9rj5fAZ+2t55f43+WPkPPsFE5aJ386SoD/+G6qgwp2FXlShU7VZrjPetGFT8tq4eRxlbERPNUlvpdftkpsFHlTM+7URn75aPPUICustCzdrT9Yius2g8VtP/++++2cuVKt86lSpXy5v7L/16Vk+bHVmD95+SI9mXRvqcyU1lon9BnqEyD28TfV/Tw49Rus3i0v73yyivuQcrah1XZVoVT6/zpp5+6mw76zngBn96rY0Q3J1Qe2vcV4AT5v3Pu3Lnu4bYq09ibObHbSDeC9Awt/YYKVSvY8pzLbcvfW+yIGkfY2aedbQ3rNnTz/OMw3jZObfmr7FVxj32mWFC894i2hZ4D1qdPH7e/6yG8unGlz9CNiMGDB7v9RttDD6ROxP9+nd+C2/SEE05wD5TWM6L++OMPd+6I3dd1HOp41A0n7cc6pyrA0z6qB2DrvFe7dm33XKak6LjUs9a0j6t8FXhof9P5UYGWglh9f7zzc2qOCwXhKkP/N2r/+vrrr12gr7+Dz1DT+WPAgAH2yCOPuOvEZZdd5vZRBXuTJk1y1wRNVzn5AXVazoPxJNrmPgWhWka/V+tdvXp1d77S87aC53n/WNQxk9ZtLCk55gAASFb0wp2hpk6dGmnRooX7f1D0ohpp1KjRf6bLggULIhdccEEkeoGM3HnnnZFohdCbE1/0AhwZOHBg5Morr4xEKx9uWvQCGbn//vsj0Up+JBp0uWkSb32iAVYkWjGIRIMJb8p/rV+/PnL11VdHosFeZPPmzd7UiPs+fW+0khWJVgbctGiFJRKtDEaefvrpvdPimT17tlsXlYVPn63v6N279z7fE8/atWsj0YpeJFo58qbsy/+sTp06RVasWOGmJfeeWCrbfv36RaIVLldOQSpjlftZZ50VmT9/vjd1X+PHj3fbMVoR96b8VzQAd+uo/6s8VC7xaJ217voN8UQr25Foxcn935fc92s/iFbsItFg05vyL5XZxRdfHHnxxRfd9tD+pN8cy/9evbTfRivL3pw9tP9qP060Lye3TVK7zeLRfvj2229HohVG9/9o0OLN2SMafLjfGG/9RdtX21nbSGUS3N99/u/0yyIaWP5nmXjbKMif3/DBhpHijxeP9Pu6nzdnj3jv96fpldLy1/6g/UL7RzyJtlk0eHHnrWgw9J99QceKykdlHA2ckzz2/e+Pt021bfxtpX1Pn+uLBi7uWNRxHQ3GvKn/igZ6bn7seS8e/3iLPe/p+8eOHeu+P975ObXHRXBb+XSO1+9//vnnvSl7yk+fqXWKBnb/2UejQV2kf//+br2C58y0nAfjSbTNE0lu+bRuY19KjjkAAJKT4X32lKlSpif27rnubh577LHuznCQ7jYrE6imlrrTnBK6S6y7pNELvhUtWtRN0+foDnfjxo33ucOtO65qQqMmRtHf76bpDrbu0vvvjUfL6C5stCKyTwZP71HzoGilyGXyJHrhd8uqSV1SzbmilSBXNrpT7NNn6zvmzZvnsiP7Q5+lTJzWa9OmTd7U1NmxY4f77brzr7vrQWpSdOqpp7p/L1682P0/tXQn/5tvvnGfr7vwuuv/2WefuQzKgaD9UttA+0ssZQX1u6IVMpeB1n6W1O9UEy9te2VmdVc+M9Hvi1bg7eyzz7ZoBXJvs1ufMn3KUin7oYxMLO2rOo7q1avnshPKZscrM9HxoOaMKofkmrwl8sxZz9iN9W60uyfdbae9eppN/G2iNyexjC5/nauUaVEZKpMT26ROmTw1t9NL56M///zTm5M62jbaRvoeNePzzwM6JtTkUhmnq6+++j9Nx0XnN83TMaVXUv7++28rXbq0OxcH6ft13lRGSuehWKk9LuJRhkqvaJC49zwcDY5cuUUDG5epjN1H1dxR5/hoAOm2g7JqKZEe58H0lmgbB6XmmAMAIJEMD/ZUgVQft9iKiS5u6vsVbHamyowqpGqepUAvqUDJp0BETXQUdKjpkk99zNQcSQFlkC78ag6mipia/4j+raBN/fsuuugi1/xM/VHUTNGviPgS9a/Q92ldRE201P9OF3T1s9Dnqa+gmjT5lVD9XxUkBTexTd20zqoE7e+FXeW5YMEC10QoqX4hSdH7FLSqLNSnJ7Y8FCypSZcf9KWW1u+7775zFUdtd1Vs1JQqXsCREVSB174Y2/xR20fNxtQkS8Gg9i1VsrVusWXgq1Spkmt2puZp6suVmaiCrv07qX5LapY2dOhQVzEOUqVav0dN4NSUVE3ctC+oOWE82md0HGm/UbPGlFbKY/Vp3Mcmd59sR+Y70k599VS7+aObbd0/67y5/5XR5e+XoQKhRGWo6WeccYZrpqfl00qfo22lJoh+0LhmzRp3rGj7+E1Y49G+qgDu22+/dTdrElFzV62nmoPu3r3bm7pHsWLFbMSIEa6pb1BajotYOrfpM3TcqSz987yCG52zdL5MdO5XU2tdG9RnUOueEulxHswI8baxL7XHHAAAiWR4sBePsjm6g6vKgiqYPlUA1H9KgyYEs2dJ0XuURdNAKcEKmCovunMcO5CH7r7roq9gQpUOvyKgLOAnn3ziBhTQwCq6A6yATwOyiO6w6rO0fn6QKFpOlZQgBbF6KchV8KLBKvQ71flffab0nVo//V9BZmwFRL9D0/Yn4FEZK7hU30etQ7BfjGgQFVUa4700eIr/G1Xpateunau4d+/e3fUrfPbZZ11FMq2VeJ8qh6okKrhV+ei7VNFT2Sm4zEgqfwXbL7zwgtsn9L1BqnypYt2oUSMrWLCgq1yr4qX9wc/gxqOKqDKzL774otsv01NKt1k8unGgfSA2O5sSOj5UyVS2Rf23tC8oO659IFEGTcGCAi9VynWspzQQiFWjeA174/w37JVzXrEJv06w6z+43psTX2rLX4PDxCtPBSHqbxWkMtR+EK9PY5D6cOn3q3K+P3S+0XnQPw9ov9NNJAVpSfUH1M0jraOCCGU6E9G+rcxS79693f+feOIJF2DoBkii7ZWW40Ln1GDZ6r06h6jfY61atdwy+j4Ff9o/Y89VsXS+0PktJcFecufBgy12G/vScswBABDPAQ/2FGCpk70q+QqmVCkSNeFRIKSmWLHZuEQUbKjJn9/kKEjfo8xactlBXTi1rAYRUDCmwUc06IFGU1NFROuk71FQpqZpqjiokqImNaoMagAYBW1ByuypQqbKkwYXUOVGlXEtq8EdNICFgg1VzlVpS24dkxMvCFAlQc1h27RpY1ddddV/KocKrhRUx3upUhRcXllZjZapERA1CIJGAdTIiC1btrRrrrkmbgY0JVR5VuVF6+tnfjVIicpdA4aoopYeVJHSKH7B8tFvVOCqpmza7rHNjBXA79y5c2+2WDcItJ+pAqbtl4gqbgqKM6I5YWq2WSwFPik5HmJp31YAoEyRX0aqoGqfTq75npr4qdz3pzmnr1vNbvZlty+t3jH13N/3fH6PzVi2700WSW35a5vGK081F4w9p6Q0eFewpxtN2n/2h7LNal7r03klXnO/WNpXFdT4N5USUVnpfKtzkrKROif36tXLBX5qRq+m6bHvT8txoXNrsGx13CkbqIGCdINN5w6dg1PakkHlqyAztnzTch482GK3sezPMQcAQKwDGuxt3rzZBQ3jx4+3u+++2/W9EGXHnn/++b0jtqWUKhfKyClAC2b1RJkxVVSSC0J0F1xDWyubp8qPT82FtD7qc6hgQZVkje6mx0GouabuhquSpMqLsopBqtyoCVSwsqiKtpoq6sKu4Eh/q6KkC3taAqUgjSCqO+V6KVOhfjt6qfJz0003xR2hUQGV7rjHe2n9Y0fgUyVJ20ZBq+6Sq5+JhlxXpTqYAU0NVRCV/QgGKsoWaL9QEKi72+lBgaTWW+XzzDPPWNeuXd321Xqr2aLKIhgE+TcRVIbBLI7fb1GBaFJBhLZ7RjQnTO02C1LfrJQcD7G07ysI0Lb3A3KVlbaRjuekmu9pmyrY29/mnL7iBYrbdXX3PAZl3dZ11nhIY7v/i/ttx659myqmpvx17ohXnnp/7KieuuGTEvqdCsxiR3NMLWXxgn2adRzHNoePR/umAieVv84zSdF8BRUK+nRe1n6vR5yo6aACPz2Oxt++aT0uFGgFy1ZN29VcX8e9jj/dcNG+Gxv0JOKXS2z5puU8eLDFbmPZn2MOAIBYByzY0x1pDfOtoEAZL91x9SvY8+fPd5kyZfwUEPl3ZXWRVvZMd45VAQlSkKSAQBUV9dWJpUqMgjJVuoL0PmXUdGfYbz6pSrCmx9Iy6iejC6zoMxs0aOD6CKopk/6vv9W0SUFKcCCYeH1lVJnRHVpVxPRZqozp37qrHaQKk6bp+7X+6jcTvFutv4O/S8spi6KXspJqNqrgV5UqZUzTm7ab7q4rs6dHR6hSrEphclmUIC2r7ae788p4+r9Nv0GBv7J6qR2oJdGy2s7qY6TPVnNNZSVV+dP3qLIZ+z4Nc64bCWoirP3UXzcF9Wo6ltzddZVPRjbnTAtly3U8qIlsIqp0KlOrx2n4GR3dmNBv1s2L4LGpYEjbKLlBI2Kbc6aX/mf1t3ua3WNPffOU3fDhDd7UPTKq/FWGqojH9q+KpfJQAKNz0/7w+wD7LR1U8VfAqfNlUseFzlfaZgqyY/sDJ0fnMQVhevSBziUKAP3mmft7XAQp8NL5Qzd7VKY6F+p3av9MLnup79L5TTcwgg70eTA9xG5j2d9jDgCAoAMS7KkCoAuuKg0DBgxwGYogVUr8O7LBl+7U6m6mHiytkcuCVKFR0zA1J1IAFUvPYtKzn2IrerpYqtKiZk7KrKlfi/qkjRkzxlviX8rq6SKsCpbWXdk8NesMUuCoCpCyCaoo6W9lkdTUM7YZoirTqshoWVVC1GdRFcfYfjVaZ93pTuszlbS+Km9RJnV/KgaqpOu5d1OmTPGm7EuVNt3VV+UztslXUrRPqHKo7Rq73Z9++mlXydEdbFUEffpdKkMF4PFoe2m7xtsfghQMqKmamuop2NMAM/6dcv0OBZn6Xcr2xq6bsh1r165N9u56sDmh9hn/hsHBomNBwYcq6omCcg0oomyrsp66GaH9V9kaNa1VxTm2LFR+GrBE70mKKt9+c87Y/q3747aGt7mmnSUL7Bms5PGpj9vCtQvdvzOi/NWkTv2m9Ey3RP0jtf+ojHVMxDYNTg1tIzWj1Dbzn2GnYE+VfmUrFQwkovORtouWTZTt1fvVLF3PVoxH50Zl7/zjOr2Oi6ToXK6gT+Wn74tHrUD0HRrBODbYi5We58GMEG8bp9cxBwCAL8ODPV1gH374YZddUUZPAU4sZYn8O7LBl+7U6oKtgO/444/3lt7Dv3uurJ6fIQzS+5TNUcUgONy2AkRdLPX5ep+CA32GKhjByoCCCl101ZRGTZpUedSyyugFm6OpGaku2Mo+qoKklwYsiO3DosqLPk/ZP39QGlVuFPQEl9PFXpUqNY3S9ypwUWVV3+u/9HdyAY0CaFUMFKxpuPZElafkaBuo7BUUaXTTWAoQtE76Pj9TmhKq9KsCrv47sdtdwaWafqlCGhw+XmWioFvZhthsqAJkVcIVSCvQT44qlRohVdtCv83PSPgjHioDqJsNseumIFE3K1Jyd91vTqgmr9oPDyYdD2qGrMBWzXBjA3NlVFQO+m063kTbe/bs2S5LpkxObFno8QOqcGu/jr2xEaSyDjbnTE/Vi1e3u5ve7f49Z/kca/xKY3vm22fc3+ld/spS6sH82vajR4/+T9CsY2zcuHEuM6rfm9xALolo22gbaVspO6ltJypH3ZhSAKeKf2zzP9H5TTfH1L9LrQ4S0Wdqe+gml85hsQGajqevvvrKlaHOfel5XIh/ntM66Dwn+i71cdY6qS9f7D6qY16DXunGk/oU6qZEctLrPJjeEm3j9DrmAADw5bpXveQziCoQunCr74wCIGWxVMkPvtTvwr/Yx5o2bZoLCNR3LrZ/hvpzabAUVariVe5VMVKmTU0tdaFXhUUBnSpJCiZU0VelSS8FTqq8KUDTnWsFMOrUryBRd6x1IVamQ5+npjVqeqTPmzhxostU6vM01Lx/F13ro+HMVfHTeqvJpSopqmyon5gq0wo01axTlSo1V9XFX/03nnvuOVcuN954o3tERFKUXVCAoyyCKgJB+nw/s6mmsApqFLj571GGUcFy7PbwX/52UXkou6kKrPooap4qJGqOq9+kZnK6C63mf1o2lspSzzRUBk9BvShYfvnll/dW7uJlH1SR0/u0zyiQViCp7aDmsSovVXY0T9tW2QlVcFX5VvNMVfB88b7fp22oz9T+qXVSNlFNS7Xd9KyyeOWv9VC2SNtSwacCYWUftS8qQFUZ+7QNVDFTIKWso8op3r6c1HaU1G6zeLQuKm9VELWPKShQueuRIapwKvOhirBOB1oPHbsqFz1nTf2s4mWZtb21PtoWKjst4wdVsb9TyypY0mi22oaxZeVLVJa+ePP9aU9d/5TlLZTXDd7y9R9f27GFjrUm1ZvELX8dkzoudDMnXgZOzYvj/RZtb+0DKkP/RoT2HQVCykhrv1BGsWPHjv/ZzkH+9+u9wW2qrJ36BWsQJO2zV1555T79kXWuUrNp9XnTManzo8pTv0/HhQaW0nw1mU+qf5+2vX6LgiqdIxVA6XjSOdA/nrSMf/5T4JfW40J0HAZ/o9ZTx2Xnzp1dYKr9U+dY3XjTeVDnVX8fVVNH7Tc6J+vGmlpNqAmo3iNpOQ/G429zNZNVcKuy8NdZL62PAnj/PJdoH/Gldhun5ZjTDUgAAJKSocGegiU13VIlQsGZLu6xL43umKi5U1LBni6a6tugBxjHVuJ9qviqKZMCE62H1kFBnkZlCwYmqiRoOV3cX3vtNVdxU6VBA7cEmwopiNNyqvgo0FE/EFXqdGFW4ODTvxUAKgulipMq0wpe+vbt6waE8Csp+k3+4CR6SLD6valipeVUCfWXSyS5IEEVJVXMdAddzVVVqVKFQu/R3fx428N/BbeLKjj+c/RUaVPQ7AfGegCyBndINLhCvGBLf6tiqqxLvP6WojJUZUmVUWUoVKlRZVDZA1UmlfXT79K20n6mO+Ea9Cf285IK9kRlp0qq+pNpW+szVclS5iBRplLbUk1QFRwp06GAKVGAom2g8lNlWt8Vb19OabCXmm0Wj9ZFFUTdeFHFVZV3Vc5VedRxpABB6yDKzigLp2WVEdQ+GkvbQ9tJGQodGxoMI6nKrz5bTf303RkR7HVo38G6Ne5mDUs3tC8Wf2H3fX6fbYtss/Z129v0b6bvU/5pDfb0m9ViQM9H0/f6QZfORSor7YMKRGJ/eyz/+xWkBbehAg0Fa7p5omNLLQVi6Xdrf9b+qUq/bkApGNIxqJtECjZTMtiJjgcdN2ptoMy2snI6Vyp4VMbd3x90g0Dnu7QeF/pN8X6jmlgqI6gy9fn7qI4D3VTTeVH7qY53lbmakKpFRPDcmJbzYLzf4G9znVN0sy64znopYNS29c8jKQ32UrqN03LM6ZhP7joBAMjeckQr/wzrBSB01Ifv4ckPW4kCJez2RrfbJTUu8eYAAABkDwR7AELrxxU/uoBv5I8jrUOVDi7oO6lkyh/vAgAAkJUR7AEIvVdnv2qPTHnElmxYYrc3vN0FfblzJt3UEgAAIKsj2AOQLazeutpl+Z76+ik75dhTXMB3TsVzvLkAAADhc8Aeqg4AB1ORfEXsydOftE8u/sTy58lv7Ua1syvfvdJ+W5s5H7gNAACwv8jsAciWnpj6hGvaeWjuQ12W7/q613tzAAAAwoFgD0C2NXfFXBfwjZgzwpqWbWo31bvJ2lVq580FAADI2gj2AGR7b/70pvX/tr9NWTLFOlbt6IK+esfW8+YCAABkTQR7AOAZOG2gC/rUj++mU25yQV+pQqW8uQAAAFkLwR4ABKzassoFfE9/87QVOqSQ9azf0wV+uXLk8pYAAADIGgj2ACAOPZBdQd9L379kJx99sgv4OlXr5M0FAADI/Aj2ACAJn/72qQv63pv/np1T6RzXtLNZ2WbeXAAAgMyLYA8AUuC1H15zQd/0v6bbVXWusp6n9LQKRSp4cwEAADIfgj0ASKGdu3e6vnwK+rbs2LJ3EJeChxT0lgAAAMg8CPYAIJX+2PDH3kFcKhap6AZxuazWZd5cAACAzIFgDwDSSE06FfSpiedp5U5zmb6zTzjbmwsAAHBw5fT+DwBIpTpH17FX279q7170rkWi/7V6vZV1G9/NZv09y1sCAADg4CGzBwDpRI9pUKZvwZoFLsunQVyOOuwoby4AAMCBRbAHAOlo0/ZNewdxOfyQw13Qd33d6725AAAABw7BHgBkAGX3FPANnDbQGpZq6AZxOa/yed5cAACAjEewBwAZaMqSKS7oe/OnN61DlQ4u09egVANvLgAAQMYh2AOAA0DBnoI+BX831rvRBX1lC5f15gIAAKQ/gj0AOIDUrFNBn/r2+YO45M2V15sLAACQfgj2AOAAW7VllQv4NJBLhSIV7Ko6V9kVJ13hzQUAAEgfBHsAcJD8uOJHGzBtgA2eMdjqHlPXetTuYd1rdffmAgAA7B+CPQA4yGYsm+ECPr3qH1vfZfq61ujqzQUAAEgbgj0AyCSCQV/jMo1dpq9ztc7eXAAAgNQh2AOATCYY9DUr28wFfR2rdvTmAgAApAzBHgBkUsGgr+VxLV3zzvOrnO/NBQAASBrBHgBkcsGg74zyZ7hMX/tK7b25AAAA8RHsAUAWEQz6zj7hbBf0ta3Y1psLAACwL4I9AMhigkFfmwptXNDXqkIrby4AAMAeBHsAkEUFg752ldq5Pn1nHH+GNxcAAGR3BHsAkMUFgz4N4KJM36nlTvXmAgCA7IpgDwBCIhj0XXjihdajTg9rXra5NxcAAGQ3BHsAEDLBoK9TtU6ueWfj0o29uQAAILsg2AOAkAoGfRdXv9gFfQ1KNfDmAgCAsMvp/R8AEDK1S9a2Qa0H2fQrp1u+PPms4ZCG1n18d/v2z2+9JQAAQJgR7AFAyAWDvjy58tgpL51iV7x7hU3/a7q3BAAACCOCPQDIJoJBX84cOe3kF0+2rm93tY8XfuwtAQAAwoQ+ewCQTf2w/Ad79YdX7bUfXrNqR1Wzi2tc7Pr2AQCAcCDYA4Bsbvmm5fbanNfs1dmv2u7Ibhf0davZzYrlL+YtAQAAsiKCPQDAXsryKfCbuWymdanexS6pcYlVL17dmwsAALISgj0AwH98+tunronn8NnDrXO1zta1Rlc7/fjTvbkAACArINgDACQ0Z/kcl+l7eebLVrN4TRf06QUAADI/gj0AQLJWblnp+vQNmTnEcuTI4QZyubL2lVb40MLeEgAAILMh2AMApMrrc153Qd/s5bP3Bn2Vilby5gIAgMyCYA8AkCafLfrMBX0j5oywi6pe5IK+ZmWbeXMBAMDBRrAHANgvc1fOtaGzhtqg6YPs5GNOtitOusI6Vu3ozQUAAAcLwR4AIF2s3rp6b9CXJ1ceu/yky61H7R6WP09+bwkAAHAgEewBANKdmnYOnjHYZf0uq3WZC/rKHVHOmwsAAA4Egj0AQIaZ+NtEG/z9YBs9d7R7ZMOVJ11pDUs39OYCAICMRLAHAMhwP638yQbNGOSaeDYt29QN5nJe5fO8uQAAICMQ7AEADpg1W9e4oE+jeO7avcu6VO9iF554oZ141IneEgAAIL0Q7AEADooJv06wkXNG2sgfR9pZ5c+yC6teaOdWPtcOy3OYtwQAANgfBHsAgIPqz41/2ps/vWlv/PiG/b7ud7vgxAtc0NekTBNvCQAAkBYEewCATGPS75Nc4KdXxaIV7dxK51r7Su2tTOEy3hIAACClCPYAAJnOqi2rXMA39uexNnXpVJfp00uBHwAASBmCPQBApqZgz8/2FTykoAv4FPidVPIkbwkAABAPwR4AIEvYuH3j3qDv/V/fd4O6+Bm/I/Md6S0FAAB8BHsAgCxnxrIZewO/Dds27A36Tit3mrcEAAAg2AMAZFnbd23fG/SNmzfO6h5Td2/gd8KRJ3hLAQCQPRHsAQBC4ccVP+4N/Oatmrc36NMrb6683lIAAGQfBHsAgNDRKJ5+4KfHNviPcKhfqr63BAAA4UewBwAIrV/X/Lo36Pt+2ffW4rgWdk7Fc+yM8mdYxSIVvaUAAAgngj0AQLbw3vz3XNCn/6/eutpaHtfSBX1nHH+GVS9e3VsKAIDwINgDAGQr6/5ZZx8u+NA+WviRey3buMwalW7kgr6zTjjLapes7S0JAEDWRrAHAMi2Nu/YbB8t+Ghv8Ldk/RI7+ZiT7fRyp1v7yu0J/AAAWRrBHgAAUXqMg8v2RYM//X/BmgVW7ahqrqlnx6od0xT4aYTQCfMn2OQlk23N1jV2+CGHu8dDnFn+TGtQqoG3FAAAGYNgDwCAGLo0+s08Ffz9vOpnq1CkgmvqeUnNS1IU+PX7pp8Nmj7Ifln9izflX+WPLG+tK7S22xvebsULFPemAgCQvgj2AABIxmeLPtsb/M3+e7Z7nIMCvytrXxk38OszsY+99P1LtmrLKm/Kf+XJmcfOP/F8G9R6kBXMW9CbCgBA+iHYAwAgFdQk02/qOf2v6VaiQAlrW7Ht3sBv/C/j7YYPbnD9/5KjZp33Nr3Xetbv6U0BACD9EOwBAJBG3/zxjQv6Pl74sU1dOtUKH1rY8uXJ50b4TKkqxarY+53ed9lCAADSE8EeAADpYMayGTZs1jB7aeZLtnXHVm9q8ormL2rD2g2zs08425sCAED6yOn9HwAA7Ac14WxVoZUdmutQb0rKqF/f4vWLvb8AAEg/BHsAAKST3bt3WyT6X2rt3LXT+xcAAOmHYA8AgHSiJpnqt5caGqSl7BFlvb8AAEg/BHsAAKSTSsUqWZF8Rby/UuaYgsdYpSKVvL8AAEg/BHsAAKQTPS/vhno3pCrga1uprZ1Q5ATvLwAA0g/BHgAA6ejCqhe6kTVz58ztTUmsednmdn3d672/AABIXzx6AQCAdLZyy0q79/N7bcL8CXFH2ix+WHFrWLqhPdLyEatQpII3FQCA9EWwBwBABvls0Wf22g+v2fS/ptvuyJ6ROk886kTrUq2LnVH+DDsk1yHekgAApD+CPQAAMtjm7Ztt4/aNlj9Pfjf6JgAABwLBHgAAAACEEAO0AAAAAEAIEewBAAAAQAgR7AEAAABACBHsAQAAAEAIEewBAAAAQAgR7AEAAABACBHsAQAAAEAIEewBAAAAQAgR7AEAAABACBHsAQAAAEAIEewBAAAAQAgR7AEAAABACBHsAQBs0aJF1rZtWzv55JP3edWvX9+6d+9u7733nm3bts1beo9//vnH7rrrLrfcLbfcYlu2bPHm7Gvt2rXuM7TcO++8403dQ997ww032Jo1a7wp/8qIef46f/fdd96Uf6V1XlIGDhxob7/9tvfXvpKa9/3331vfvn1t69at3pR/LVu2zB566CFr2bKl2z7XX3+9/fTTTxaJRLwl/uvTTz+19u3bu7KJNX/+fOvdu7f7LH3mU089Fbfs9L133HGHNWzY0C336KOP2sqVK725/9q1a5d9/PHH1rVrV7fNzzzzTBs6dGjc3+JTufbo0cPWrVvnTdlXWssRALK7XPdGef8GAGRTqmR/+OGHVq5cOWvTpo2ddNJJ7nXCCSfYkiVL7K233rI//vjD6tSpY4ceeqh7z86dO23y5Mm2YMEC27hxowsCihYt6uYF/fzzzzZs2DDbvXu3NW3a1CpWrOje87///c8OP/xwF4DkyJHDBg0aZMcff7wLDtN7Xr58+ezxxx+31atX2/r16916KUBQsFK2bNk0zatSpYr7O5aCHX3vnDlzLFeuXO593377rQtoatasaYMHD447r3bt2jZt2jR74YUX7Mgjj7SlS5e6+QqUatWqZYcddpj99ttv1rNnT9u8ebNdeeWVLpBS+Q4fPtxtr+LFi3tr8S+95+GHH3bb66yzzrIjjjjCm7Nn3m233ebKR0FjtWrVXGD/9ddfu+Avf/78bjlt+5tvvtkFvddcc41bnw8++MCmT5/ultP7Rb/9pZdesmeeecbOOOMMu+yyy6xEiRL22muv2YoVK6xevXrud/sUoM6cOdPuv/9+O+SQQ9zv8fev/SnHnDm5lw0AQrAHANgb7DVq1MhV5hXU6aWKvDJCqrC/+uqrrkJeo0YNV5n2g708efK4SnuRIkWsatWqez7Qo+njxo1zwaDUrVvXBXuFChVygeG7775rX3zxhavgd+zY0SpXruyCkfSelzdvXhf0KWOm7OLff/9tp59+ustQKaBJyzx9ZjwqGwXNixcvtjfeeMMFVPrd55xzjhUsWDDhPAVzxYoVc9/5+uuvu8CvZMmS1qVLFzvmmGNcsKxtoAyqsmrVq1d3wai22axZs9w2VDClINenZfv37+8C4dhgb8eOHS6Y2r59uz344IMueFVZafuOGTPGfaeCfW3DsWPHuqBfga8CLS2n/UPLKbj2A9+FCxe6QO+mm25y612qVCkXGOp3jB492u1P2k9k06ZN7ncqS6lg7aijjton2NufcgQA7MGtLwBAklTpVpBw9tlnu+Z5y5cv9+bsoQq9KvHK8sQ25Vy1apXLtqiJqAJFn7IxCiaUKdJnKxgsXbq0m54R8xQAKZDSb/GzSwouChQokOZ5SVFApaCjfPny7v0KiJStS26eykjZudy5c1vjxo1dIKbfpO9XuU+dOtUuvvjifTKoev9zzz3nMm9azqfMmIJDUdYulppVbtiwwQWLfgAm+jz9PgWHoqBMwa62sX67T2WrMpk9e7Yrc5kyZYpVqlTJBcPBoFMB8vvvv++CR58ylsrOnX/++W7d40lrOQIA9iDYAwAkS1ms5s2bu+aRf/75pzd1DwUYap6pvl9qehik5poKXCpUqOBN+devv/7qmh6qH5gyQ/psX0bMUz80ZZBuvfVW1wRS/dyU3dqfeYkoQFK2SRku9YfTv9X0Mrl5CtDULFPBsfoIqnmksomi/yuoUmA2cuRIa926tWs6q98au01EAdqXX37pmlLGy3YpOFKzV/WtE2XwFFCqSajWQ5lDUVZQn6+gPhjAKaOrrKeyawrytW76Lco2qtmn3w/wvPPOc01DFbgGFS5c2J588km78cYb466fpLUcAQB75Iie3BP36AYAZAsKilTpVgbmuuuu86bu68cff7Rrr73WevXq5YIRVe7VBE/0nvvuu8+aNGnimk6KAoYBAwa4oEBZQX3+5Zdf7t6L1FNmTMGZMn96KYhSkKU+cgrCFDgp0BIFWwpONTDOqaee6gI/9dpQk87jjjvOLROkJqDqC6htrCyZ+vipuab4+4Y/GE+Qmrbq+/W5CkKVoVN/RmVA1fdTWT41qR0/frwLOi+99FI3L5Y+R819+/Xr54JAAED6ILMHAEgRZV/U1y4eZYnUhyvYlFMZMQUPao6I/admlSpbNYVU0NesWTMXRD/99NMue6qBYxRg+wGgsq3KxqaE7vsqa6kgr0yZMi6gV/Nb0ffqFS9IC1KfQn2/Akdl2hTYKbPnZ0Q1yI+ybwCAA4dgDwCQImrKGG+ofVFmScFesCnnL7/84pp/+tkmpI8WLVrsHSVT1LyyQYMGLrBW00YNUKPHJCjzl1yA5lP/NwVmp512mhuERU1hX3nlFdenT4GkXgrkUkIjegYH6vGb+er/amYLADhwCPYAACmixw/Iscce6/4fS0Gd5mkofQUG33zzjQsANXJiGCmDpeyVmjb6L/2t6RkhODBJkAJtBXUqcwXkGlVVzTY1SI2/XnqGnQLACy64INl11OAs6guopqDa5vpsvfT+WMoiqtmlMr4K7NWUU+unprtBWkcFe/6gLwCAA4NgDwCQLA2uoZEg1YRQmaR4FNQpuFOgoeze3Llz3d/BQT2QdupLp4BPQViQgjx/4BY1p1X/umeffXafl/rj6b3qd6f5ygxqG2lwFo2wGkuf5wd5Ct40IqiWD3bz1yA1etSCAnwNJKORRPWIDg3mEvsAde0/eig/o2UCwIFFsAcASJL6YukB2hogRE0Ig8P+B/lNOdVU76OPPnJ9/OINBhIWymipqaP6tvkv/Z1RA4woyNYz8CZMmOAeaeH7/fff3aibGn1UGTYNrKJnzgVfGihFwZiaWGq+snBaTwWHn3zyiWv+6dNnT5o0yQX22tbK9KlZpx60rgej+/TcPT3IXPMU7CkwVEZQ21+PYPADQwWjn376qfscmvQCwIFFsAcA2EtNMPWgbf/11FNPWYcOHdxDt8844wzXDDCpTJ0q83qAtgYIqV27dmibcB4MysZpW+hxFhoARc01FYDr3ypzjXKamiyqts0ll1ziMrHK+H3++efuM/V5Cviuuuoq9536TAX5ytZptE0to8FW/O/VQDE+BaN6xp4e+j5w4EAX9KkP4KhRo6xbt24uQwgAOHAI9gAAe/3www8uUPNfY8eOtaOPPtqN0ti3b999BgaJx2/KqeXUVwzpS2X6/PPPu4ebP/DAA+5xC8rcKRhPlHFNiraVHo+hvnR9+vRxgZkeUv7MM89YuXLlvKX2BPGapv/re9U0NN73arvrc/QoDgWPaj6q5xLqsRytWrWiSS8AHGA8Zw8AAAAAQojMHgAAAACEEMEeAAAAAIQQwR4AAAAAhBDBHgAAAACEEMEeAAAAAIQQwR4AAAAAhBDBHgAAAACEEMEeAAAAAIQQwR4AAAAAhBDBHgAAAACEEMEeAAAAAIQQwR4AAAAAhBDBHgAAAACEEMEeAAAAAIQQwR4AAAAAhBDBHgAAAACEEMEeAAAAAIQQwR4AAAAAhBDBHgAAAACEEMEeAAAAAIQQwR4AAAAAhBDBHgAAAACEEMEeAAAAAIQQwR4AAAAAhBDBHgAAAACEEMEeAAAAAIQQwR4AAAAAhBDBHgAAAACEEMEeAAAAAIQQwR4AAAAAhBDBHgAAAACEEMEeAAAAAIQQwR4AAAAAhBDBHgAAAACEEMEeAAAAAIQQwR4AAAAAhBDBHgAAAACEEMEeAAAAAIQQwR4AAAAAhBDBHgAAAACEEMEeAAAAAIQQwR4AAAAAhBDBHgAAAACEEMEeAAAAAIQQwR4AAAAAhBDBHgAAAACEEMEeAAAAAIQQwR4AAAAAhBDBHgAAAACEEMEeAAAAAIQQwR4AAAAAhBDBHgAAAACEEMEeAAAAAIQQwR4AAAAAhBDBHgAAAACEEMEeAAAAAISO2f8BRRAloypgbW4AAAAASUVORK5CYII=;" vertex="1" parent="1">
          <mxGeometry x="120" y="660" width="891" height="497" as="geometry" />
        </mxCell>
        <mxCell id="058cRxedPbUTStPQTcPn-15" value="" style="ellipse;whiteSpace=wrap;html=1;aspect=fixed;" vertex="1" parent="1">
          <mxGeometry x="880" y="1010" width="20" height="20" as="geometry" />
        </mxCell>
        <mxCell id="058cRxedPbUTStPQTcPn-16" value="NÃ³s / VÃ©rtices" style="text;html=1;align=left;verticalAlign=middle;whiteSpace=wrap;rounded=0;" vertex="1" parent="1">
          <mxGeometry x="905" y="1012.5" width="90" height="15" as="geometry" />
        </mxCell>
        <mxCell id="058cRxedPbUTStPQTcPn-17" value="" style="endArrow=none;html=1;rounded=0;" edge="1" parent="1">
          <mxGeometry width="50" height="50" relative="1" as="geometry">
            <mxPoint x="880" y="1047.3" as="sourcePoint" />
            <mxPoint x="900" y="1047" as="targetPoint" />
          </mxGeometry>
        </mxCell>
        <mxCell id="058cRxedPbUTStPQTcPn-18" value="Arestas" style="text;html=1;align=left;verticalAlign=middle;whiteSpace=wrap;rounded=0;" vertex="1" parent="1">
          <mxGeometry x="905" y="1040" width="90" height="15" as="geometry" />
        </mxCell>
        <mxCell id="058cRxedPbUTStPQTcPn-19" value="" style="ellipse;whiteSpace=wrap;html=1;aspect=fixed;fillColor=#0050ef;fontColor=#ffffff;strokeColor=#001DBC;" vertex="1" parent="1">
          <mxGeometry x="885" y="1070" width="20" height="20" as="geometry" />
        </mxCell>
        <mxCell id="058cRxedPbUTStPQTcPn-20" value="Empresas" style="text;html=1;align=left;verticalAlign=middle;whiteSpace=wrap;rounded=0;" vertex="1" parent="1">
          <mxGeometry x="910" y="1072.5" width="90" height="15" as="geometry" />
        </mxCell>
        <mxCell id="058cRxedPbUTStPQTcPn-21" value="" style="ellipse;whiteSpace=wrap;html=1;aspect=fixed;fillColor=#60a917;fontColor=#ffffff;strokeColor=#2D7600;" vertex="1" parent="1">
          <mxGeometry x="885" y="1100" width="20" height="20" as="geometry" />
        </mxCell>
        <mxCell id="058cRxedPbUTStPQTcPn-22" value="SÃ³cios" style="text;html=1;align=left;verticalAlign=middle;whiteSpace=wrap;rounded=0;" vertex="1" parent="1">
          <mxGeometry x="910" y="1102.5" width="90" height="15" as="geometry" />
        </mxCell>
      </root>
    </mxGraphModel>
  </diagram>
</mxfile>
